ISO-10303-21;
HEADER;
FILE_DESCRIPTION(('FreeCAD Model'),'2;1');
FILE_NAME('Open CASCADE Shape Model','2026-08-24T00:59:50',(''),(''),
  'Open CASCADE STEP processor 7.8','FreeCAD','Unknown');
FILE_SCHEMA(('AUTOMOTIVE_DESIGN { 1 0 10303 214 1 1 1 1 }'));
ENDSEC;
DATA;
#1 = APPLICATION_PROTOCOL_DEFINITION('international standard',
  'automotive_design',2000,#2);
#2 = APPLICATION_CONTEXT(
  'core data for automotive mechanical design processes');
#3 = SHAPE_DEFINITION_REPRESENTATION(#4,#10);
#4 = PRODUCT_DEFINITION_SHAPE('','',#5);
#5 = PRODUCT_DEFINITION('design','',#6,#9);
#6 = PRODUCT_DEFINITION_FORMATION('','',#7);
#7 = PRODUCT('Rail','Rail','',(#8));
#8 = PRODUCT_CONTEXT('',#2,'mechanical');
#9 = PRODUCT_DEFINITION_CONTEXT('part definition',#2,'design');
#10 = SHAPE_REPRESENTATION('',(#11,#15),#19);
#11 = AXIS2_PLACEMENT_3D('',#12,#13,#14);
#12 = CARTESIAN_POINT('',(0.,0.,0.));
#13 = DIRECTION('',(0.,0.,1.));
#14 = DIRECTION('',(1.,0.,-0.));
#15 = AXIS2_PLACEMENT_3D('',#16,#17,#18);
#16 = CARTESIAN_POINT('',(0.,0.,0.));
#17 = DIRECTION('',(0.,0.,1.));
#18 = DIRECTION('',(1.,0.,0.));
#19 = ( GEOMETRIC_REPRESENTATION_CONTEXT(3) 
GLOBAL_UNCERTAINTY_ASSIGNED_CONTEXT((#23)) GLOBAL_UNIT_ASSIGNED_CONTEXT(
(#20,#21,#22)) REPRESENTATION_CONTEXT('Context #1',
  '3D Context with UNIT and UNCERTAINTY') );
#20 = ( LENGTH_UNIT() NAMED_UNIT(*) SI_UNIT(.MILLI.,.METRE.) );
#21 = ( NAMED_UNIT(*) PLANE_ANGLE_UNIT() SI_UNIT($,.RADIAN.) );
#22 = ( NAMED_UNIT(*) SI_UNIT($,.STERADIAN.) SOLID_ANGLE_UNIT() );
#23 = UNCERTAINTY_MEASURE_WITH_UNIT(LENGTH_MEASURE(1.E-05),#20,
  'distance_accuracy_value','confusion accuracy');
#24 = PRODUCT_RELATED_PRODUCT_CATEGORY('part',$,(#7));
#25 = SHAPE_DEFINITION_REPRESENTATION(#26,#32);
#26 = PRODUCT_DEFINITION_SHAPE('','',#27);
#27 = PRODUCT_DEFINITION('design','',#28,#31);
#28 = PRODUCT_DEFINITION_FORMATION('','',#29);
#29 = PRODUCT('Body','Body','',(#30));
#30 = PRODUCT_CONTEXT('',#2,'mechanical');
#31 = PRODUCT_DEFINITION_CONTEXT('part definition',#2,'design');
#32 = ADVANCED_BREP_SHAPE_REPRESENTATION('',(#11,#33),#963);
#33 = MANIFOLD_SOLID_BREP('',#34);
#34 = CLOSED_SHELL('',(#35,#107,#202,#226,#250,#274,#298,#322,#410,#427,
    #444,#461,#511,#528,#545,#562,#611,#635,#714,#731,#756,#781,#806,
    #823,#840,#852,#877,#902,#927,#939,#951));
#35 = ADVANCED_FACE('',(#36),#102,.F.);
#36 = FACE_BOUND('',#37,.F.);
#37 = EDGE_LOOP('',(#38,#48,#56,#64,#72,#80,#88,#96));
#38 = ORIENTED_EDGE('',*,*,#39,.F.);
#39 = EDGE_CURVE('',#40,#42,#44,.T.);
#40 = VERTEX_POINT('',#41);
#41 = CARTESIAN_POINT('',(-20.,-39.1,3.4));
#42 = VERTEX_POINT('',#43);
#43 = CARTESIAN_POINT('',(-20.,-39.1,6.5));
#44 = LINE('',#45,#46);
#45 = CARTESIAN_POINT('',(-20.,-39.1,-31.5));
#46 = VECTOR('',#47,1.);
#47 = DIRECTION('',(0.,0.,1.));
#48 = ORIENTED_EDGE('',*,*,#49,.T.);
#49 = EDGE_CURVE('',#40,#50,#52,.T.);
#50 = VERTEX_POINT('',#51);
#51 = CARTESIAN_POINT('',(20.,-39.1,3.4));
#52 = LINE('',#53,#54);
#53 = CARTESIAN_POINT('',(-20.,-39.1,3.4));
#54 = VECTOR('',#55,1.);
#55 = DIRECTION('',(1.,0.,0.));
#56 = ORIENTED_EDGE('',*,*,#57,.T.);
#57 = EDGE_CURVE('',#50,#58,#60,.T.);
#58 = VERTEX_POINT('',#59);
#59 = CARTESIAN_POINT('',(20.,-39.1,6.5));
#60 = LINE('',#61,#62);
#61 = CARTESIAN_POINT('',(20.,-39.1,-31.5));
#62 = VECTOR('',#63,1.);
#63 = DIRECTION('',(0.,0.,1.));
#64 = ORIENTED_EDGE('',*,*,#65,.F.);
#65 = EDGE_CURVE('',#66,#58,#68,.T.);
#66 = VERTEX_POINT('',#67);
#67 = CARTESIAN_POINT('',(10.000000000096,-39.1,6.5));
#68 = LINE('',#69,#70);
#69 = CARTESIAN_POINT('',(-20.,-39.1,6.5));
#70 = VECTOR('',#71,1.);
#71 = DIRECTION('',(1.,0.,0.));
#72 = ORIENTED_EDGE('',*,*,#73,.F.);
#73 = EDGE_CURVE('',#74,#66,#76,.T.);
#74 = VERTEX_POINT('',#75);
#75 = CARTESIAN_POINT('',(10.923760430608,-39.1,4.9));
#76 = LINE('',#77,#78);
#77 = CARTESIAN_POINT('',(7.383049904368,-39.1,11.032690527611));
#78 = VECTOR('',#79,1.);
#79 = DIRECTION('',(-0.499999999922,0.,0.866025403829));
#80 = ORIENTED_EDGE('',*,*,#81,.F.);
#81 = EDGE_CURVE('',#82,#74,#84,.T.);
#82 = VERTEX_POINT('',#83);
#83 = CARTESIAN_POINT('',(-10.9237604306,-39.1,4.9));
#84 = LINE('',#85,#86);
#85 = CARTESIAN_POINT('',(-15.4618802153,-39.1,4.9));
#86 = VECTOR('',#87,1.);
#87 = DIRECTION('',(1.,0.,0.));
#88 = ORIENTED_EDGE('',*,*,#89,.F.);
#89 = EDGE_CURVE('',#90,#82,#92,.T.);
#90 = VERTEX_POINT('',#91);
#91 = CARTESIAN_POINT('',(-9.999999999904,-39.1,6.5));
#92 = LINE('',#93,#94);
#93 = CARTESIAN_POINT('',(-11.92116968784,-39.1,3.172436490518));
#94 = VECTOR('',#95,1.);
#95 = DIRECTION('',(-0.5,-0.,-0.866025403784));
#96 = ORIENTED_EDGE('',*,*,#97,.F.);
#97 = EDGE_CURVE('',#42,#90,#98,.T.);
#98 = LINE('',#99,#100);
#99 = CARTESIAN_POINT('',(-20.,-39.1,6.5));
#100 = VECTOR('',#101,1.);
#101 = DIRECTION('',(1.,0.,0.));
#102 = PLANE('',#103);
#103 = AXIS2_PLACEMENT_3D('',#104,#105,#106);
#104 = CARTESIAN_POINT('',(-20.,-39.1,3.4));
#105 = DIRECTION('',(0.,-1.,0.));
#106 = DIRECTION('',(0.,0.,1.));
#107 = ADVANCED_FACE('',(#108),#197,.F.);
#108 = FACE_BOUND('',#109,.F.);
#109 = EDGE_LOOP('',(#110,#118,#119,#127,#135,#143,#151,#159,#167,#175,
    #183,#191));
#110 = ORIENTED_EDGE('',*,*,#111,.F.);
#111 = EDGE_CURVE('',#40,#112,#114,.T.);
#112 = VERTEX_POINT('',#113);
#113 = CARTESIAN_POINT('',(-20.,-40.1,3.4));
#114 = LINE('',#115,#116);
#115 = CARTESIAN_POINT('',(-20.,-39.1,3.4));
#116 = VECTOR('',#117,1.);
#117 = DIRECTION('',(0.,-1.,0.));
#118 = ORIENTED_EDGE('',*,*,#39,.T.);
#119 = ORIENTED_EDGE('',*,*,#120,.T.);
#120 = EDGE_CURVE('',#42,#121,#123,.T.);
#121 = VERTEX_POINT('',#122);
#122 = CARTESIAN_POINT('',(-20.,-44.1,6.5));
#123 = LINE('',#124,#125);
#124 = CARTESIAN_POINT('',(-20.,-39.1,6.5));
#125 = VECTOR('',#126,1.);
#126 = DIRECTION('',(0.,-1.,0.));
#127 = ORIENTED_EDGE('',*,*,#128,.T.);
#128 = EDGE_CURVE('',#121,#129,#131,.T.);
#129 = VERTEX_POINT('',#130);
#130 = CARTESIAN_POINT('',(-20.,-44.1,-29.9));
#131 = LINE('',#132,#133);
#132 = CARTESIAN_POINT('',(-20.,-44.1,6.5));
#133 = VECTOR('',#134,1.);
#134 = DIRECTION('',(0.,0.,-1.));
#135 = ORIENTED_EDGE('',*,*,#136,.T.);
#136 = EDGE_CURVE('',#129,#137,#139,.T.);
#137 = VERTEX_POINT('',#138);
#138 = CARTESIAN_POINT('',(-20.,-39.1,-29.9));
#139 = LINE('',#140,#141);
#140 = CARTESIAN_POINT('',(-20.,-44.1,-29.9));
#141 = VECTOR('',#142,1.);
#142 = DIRECTION('',(0.,1.,-2.22044604925E-16));
#143 = ORIENTED_EDGE('',*,*,#144,.T.);
#144 = EDGE_CURVE('',#137,#145,#147,.T.);
#145 = VERTEX_POINT('',#146);
#146 = CARTESIAN_POINT('',(-20.,-39.1,-28.2));
#147 = LINE('',#148,#149);
#148 = CARTESIAN_POINT('',(-20.,-39.1,-31.5));
#149 = VECTOR('',#150,1.);
#150 = DIRECTION('',(0.,0.,1.));
#151 = ORIENTED_EDGE('',*,*,#152,.T.);
#152 = EDGE_CURVE('',#145,#153,#155,.T.);
#153 = VERTEX_POINT('',#154);
#154 = CARTESIAN_POINT('',(-20.,-40.1,-28.2));
#155 = LINE('',#156,#157);
#156 = CARTESIAN_POINT('',(-20.,-39.1,-28.2));
#157 = VECTOR('',#158,1.);
#158 = DIRECTION('',(0.,-1.,0.));
#159 = ORIENTED_EDGE('',*,*,#160,.F.);
#160 = EDGE_CURVE('',#161,#153,#163,.T.);
#161 = VERTEX_POINT('',#162);
#162 = CARTESIAN_POINT('',(-20.,-40.1,-29.2));
#163 = LINE('',#164,#165);
#164 = CARTESIAN_POINT('',(-20.,-40.1,-29.2));
#165 = VECTOR('',#166,1.);
#166 = DIRECTION('',(0.,0.,1.));
#167 = ORIENTED_EDGE('',*,*,#168,.F.);
#168 = EDGE_CURVE('',#169,#161,#171,.T.);
#169 = VERTEX_POINT('',#170);
#170 = CARTESIAN_POINT('',(-20.,-42.1,-29.2));
#171 = LINE('',#172,#173);
#172 = CARTESIAN_POINT('',(-20.,-42.1,-29.2));
#173 = VECTOR('',#174,1.);
#174 = DIRECTION('',(0.,1.,0.));
#175 = ORIENTED_EDGE('',*,*,#176,.F.);
#176 = EDGE_CURVE('',#177,#169,#179,.T.);
#177 = VERTEX_POINT('',#178);
#178 = CARTESIAN_POINT('',(-20.,-42.1,4.2));
#179 = LINE('',#180,#181);
#180 = CARTESIAN_POINT('',(-20.,-42.1,4.2));
#181 = VECTOR('',#182,1.);
#182 = DIRECTION('',(0.,0.,-1.));
#183 = ORIENTED_EDGE('',*,*,#184,.F.);
#184 = EDGE_CURVE('',#185,#177,#187,.T.);
#185 = VERTEX_POINT('',#186);
#186 = CARTESIAN_POINT('',(-20.,-40.1,4.2));
#187 = LINE('',#188,#189);
#188 = CARTESIAN_POINT('',(-20.,-40.1,4.2));
#189 = VECTOR('',#190,1.);
#190 = DIRECTION('',(0.,-1.,0.));
#191 = ORIENTED_EDGE('',*,*,#192,.F.);
#192 = EDGE_CURVE('',#112,#185,#193,.T.);
#193 = LINE('',#194,#195);
#194 = CARTESIAN_POINT('',(-20.,-40.1,3.4));
#195 = VECTOR('',#196,1.);
#196 = DIRECTION('',(0.,0.,1.));
#197 = PLANE('',#198);
#198 = AXIS2_PLACEMENT_3D('',#199,#200,#201);
#199 = CARTESIAN_POINT('',(-20.,-41.69501187648,-12.53515439429));
#200 = DIRECTION('',(1.,0.,0.));
#201 = DIRECTION('',(0.,1.,0.));
#202 = ADVANCED_FACE('',(#203),#221,.F.);
#203 = FACE_BOUND('',#204,.F.);
#204 = EDGE_LOOP('',(#205,#206,#207,#215));
#205 = ORIENTED_EDGE('',*,*,#120,.F.);
#206 = ORIENTED_EDGE('',*,*,#97,.T.);
#207 = ORIENTED_EDGE('',*,*,#208,.F.);
#208 = EDGE_CURVE('',#209,#90,#211,.T.);
#209 = VERTEX_POINT('',#210);
#210 = CARTESIAN_POINT('',(-9.999999999904,-44.1,6.5));
#211 = LINE('',#212,#213);
#212 = CARTESIAN_POINT('',(-9.999999999904,-44.1,6.5));
#213 = VECTOR('',#214,1.);
#214 = DIRECTION('',(0.,1.,-2.22044604925E-16));
#215 = ORIENTED_EDGE('',*,*,#216,.F.);
#216 = EDGE_CURVE('',#121,#209,#217,.T.);
#217 = LINE('',#218,#219);
#218 = CARTESIAN_POINT('',(-20.,-44.1,6.5));
#219 = VECTOR('',#220,1.);
#220 = DIRECTION('',(1.,0.,0.));
#221 = PLANE('',#222);
#222 = AXIS2_PLACEMENT_3D('',#223,#224,#225);
#223 = CARTESIAN_POINT('',(-20.,-39.1,6.5));
#224 = DIRECTION('',(0.,0.,-1.));
#225 = DIRECTION('',(0.,-1.,0.));
#226 = ADVANCED_FACE('',(#227),#245,.F.);
#227 = FACE_BOUND('',#228,.F.);
#228 = EDGE_LOOP('',(#229,#237,#238,#239));
#229 = ORIENTED_EDGE('',*,*,#230,.F.);
#230 = EDGE_CURVE('',#209,#231,#233,.T.);
#231 = VERTEX_POINT('',#232);
#232 = CARTESIAN_POINT('',(-10.9237604306,-44.1,4.9));
#233 = LINE('',#234,#235);
#234 = CARTESIAN_POINT('',(-9.999999999904,-44.1,6.5));
#235 = VECTOR('',#236,1.);
#236 = DIRECTION('',(-0.5,-1.922962686384E-16,-0.866025403784));
#237 = ORIENTED_EDGE('',*,*,#208,.T.);
#238 = ORIENTED_EDGE('',*,*,#89,.T.);
#239 = ORIENTED_EDGE('',*,*,#240,.F.);
#240 = EDGE_CURVE('',#231,#82,#241,.T.);
#241 = LINE('',#242,#243);
#242 = CARTESIAN_POINT('',(-10.9237604306,-44.1,4.9));
#243 = VECTOR('',#244,1.);
#244 = DIRECTION('',(0.,1.,-2.22044604925E-16));
#245 = PLANE('',#246);
#246 = AXIS2_PLACEMENT_3D('',#247,#248,#249);
#247 = CARTESIAN_POINT('',(-9.999999999904,-44.1,6.5));
#248 = DIRECTION('',(-0.866025403784,1.110223024625E-16,0.5));
#249 = DIRECTION('',(-0.5,-1.922962686384E-16,-0.866025403784));
#250 = ADVANCED_FACE('',(#251),#269,.F.);
#251 = FACE_BOUND('',#252,.F.);
#252 = EDGE_LOOP('',(#253,#261,#262,#263));
#253 = ORIENTED_EDGE('',*,*,#254,.F.);
#254 = EDGE_CURVE('',#231,#255,#257,.T.);
#255 = VERTEX_POINT('',#256);
#256 = CARTESIAN_POINT('',(10.923760430608,-44.1,4.9));
#257 = LINE('',#258,#259);
#258 = CARTESIAN_POINT('',(-10.9237604306,-44.1,4.9));
#259 = VECTOR('',#260,1.);
#260 = DIRECTION('',(1.,0.,0.));
#261 = ORIENTED_EDGE('',*,*,#240,.T.);
#262 = ORIENTED_EDGE('',*,*,#81,.T.);
#263 = ORIENTED_EDGE('',*,*,#264,.F.);
#264 = EDGE_CURVE('',#255,#74,#265,.T.);
#265 = LINE('',#266,#267);
#266 = CARTESIAN_POINT('',(10.923760430608,-44.1,4.9));
#267 = VECTOR('',#268,1.);
#268 = DIRECTION('',(0.,1.,-2.22044604925E-16));
#269 = PLANE('',#270);
#270 = AXIS2_PLACEMENT_3D('',#271,#272,#273);
#271 = CARTESIAN_POINT('',(-10.9237604306,-44.1,4.9));
#272 = DIRECTION('',(0.,-2.22044604925E-16,-1.));
#273 = DIRECTION('',(1.,0.,0.));
#274 = ADVANCED_FACE('',(#275),#293,.F.);
#275 = FACE_BOUND('',#276,.F.);
#276 = EDGE_LOOP('',(#277,#285,#286,#287));
#277 = ORIENTED_EDGE('',*,*,#278,.F.);
#278 = EDGE_CURVE('',#255,#279,#281,.T.);
#279 = VERTEX_POINT('',#280);
#280 = CARTESIAN_POINT('',(10.000000000096,-44.1,6.5));
#281 = LINE('',#282,#283);
#282 = CARTESIAN_POINT('',(10.923760430608,-44.1,4.9));
#283 = VECTOR('',#284,1.);
#284 = DIRECTION('',(-0.499999999922,1.922962686483E-16,0.866025403829)
  );
#285 = ORIENTED_EDGE('',*,*,#264,.T.);
#286 = ORIENTED_EDGE('',*,*,#73,.T.);
#287 = ORIENTED_EDGE('',*,*,#288,.F.);
#288 = EDGE_CURVE('',#279,#66,#289,.T.);
#289 = LINE('',#290,#291);
#290 = CARTESIAN_POINT('',(10.000000000096,-44.1,6.5));
#291 = VECTOR('',#292,1.);
#292 = DIRECTION('',(0.,1.,-2.22044604925E-16));
#293 = PLANE('',#294);
#294 = AXIS2_PLACEMENT_3D('',#295,#296,#297);
#295 = CARTESIAN_POINT('',(10.923760430608,-44.1,4.9));
#296 = DIRECTION('',(0.866025403829,1.110223024453E-16,0.499999999922));
#297 = DIRECTION('',(-0.499999999922,1.922962686483E-16,0.866025403829)
  );
#298 = ADVANCED_FACE('',(#299),#317,.F.);
#299 = FACE_BOUND('',#300,.F.);
#300 = EDGE_LOOP('',(#301,#302,#303,#311));
#301 = ORIENTED_EDGE('',*,*,#288,.T.);
#302 = ORIENTED_EDGE('',*,*,#65,.T.);
#303 = ORIENTED_EDGE('',*,*,#304,.T.);
#304 = EDGE_CURVE('',#58,#305,#307,.T.);
#305 = VERTEX_POINT('',#306);
#306 = CARTESIAN_POINT('',(20.,-44.1,6.5));
#307 = LINE('',#308,#309);
#308 = CARTESIAN_POINT('',(20.,-39.1,6.5));
#309 = VECTOR('',#310,1.);
#310 = DIRECTION('',(0.,-1.,0.));
#311 = ORIENTED_EDGE('',*,*,#312,.F.);
#312 = EDGE_CURVE('',#279,#305,#313,.T.);
#313 = LINE('',#314,#315);
#314 = CARTESIAN_POINT('',(-20.,-44.1,6.5));
#315 = VECTOR('',#316,1.);
#316 = DIRECTION('',(1.,0.,0.));
#317 = PLANE('',#318);
#318 = AXIS2_PLACEMENT_3D('',#319,#320,#321);
#319 = CARTESIAN_POINT('',(-20.,-39.1,6.5));
#320 = DIRECTION('',(0.,0.,-1.));
#321 = DIRECTION('',(0.,-1.,0.));
#322 = ADVANCED_FACE('',(#323),#405,.T.);
#323 = FACE_BOUND('',#324,.T.);
#324 = EDGE_LOOP('',(#325,#333,#334,#335,#343,#351,#359,#367,#375,#383,
    #391,#399));
#325 = ORIENTED_EDGE('',*,*,#326,.F.);
#326 = EDGE_CURVE('',#50,#327,#329,.T.);
#327 = VERTEX_POINT('',#328);
#328 = CARTESIAN_POINT('',(20.,-40.1,3.4));
#329 = LINE('',#330,#331);
#330 = CARTESIAN_POINT('',(20.,-39.1,3.4));
#331 = VECTOR('',#332,1.);
#332 = DIRECTION('',(0.,-1.,0.));
#333 = ORIENTED_EDGE('',*,*,#57,.T.);
#334 = ORIENTED_EDGE('',*,*,#304,.T.);
#335 = ORIENTED_EDGE('',*,*,#336,.T.);
#336 = EDGE_CURVE('',#305,#337,#339,.T.);
#337 = VERTEX_POINT('',#338);
#338 = CARTESIAN_POINT('',(20.,-44.1,-29.9));
#339 = LINE('',#340,#341);
#340 = CARTESIAN_POINT('',(20.,-44.1,6.5));
#341 = VECTOR('',#342,1.);
#342 = DIRECTION('',(0.,0.,-1.));
#343 = ORIENTED_EDGE('',*,*,#344,.T.);
#344 = EDGE_CURVE('',#337,#345,#347,.T.);
#345 = VERTEX_POINT('',#346);
#346 = CARTESIAN_POINT('',(20.,-39.1,-29.9));
#347 = LINE('',#348,#349);
#348 = CARTESIAN_POINT('',(20.,-44.1,-29.9));
#349 = VECTOR('',#350,1.);
#350 = DIRECTION('',(0.,1.,-2.22044604925E-16));
#351 = ORIENTED_EDGE('',*,*,#352,.T.);
#352 = EDGE_CURVE('',#345,#353,#355,.T.);
#353 = VERTEX_POINT('',#354);
#354 = CARTESIAN_POINT('',(20.,-39.1,-28.2));
#355 = LINE('',#356,#357);
#356 = CARTESIAN_POINT('',(20.,-39.1,-31.5));
#357 = VECTOR('',#358,1.);
#358 = DIRECTION('',(0.,0.,1.));
#359 = ORIENTED_EDGE('',*,*,#360,.T.);
#360 = EDGE_CURVE('',#353,#361,#363,.T.);
#361 = VERTEX_POINT('',#362);
#362 = CARTESIAN_POINT('',(20.,-40.1,-28.2));
#363 = LINE('',#364,#365);
#364 = CARTESIAN_POINT('',(20.,-39.1,-28.2));
#365 = VECTOR('',#366,1.);
#366 = DIRECTION('',(0.,-1.,0.));
#367 = ORIENTED_EDGE('',*,*,#368,.F.);
#368 = EDGE_CURVE('',#369,#361,#371,.T.);
#369 = VERTEX_POINT('',#370);
#370 = CARTESIAN_POINT('',(20.,-40.1,-29.2));
#371 = LINE('',#372,#373);
#372 = CARTESIAN_POINT('',(20.,-40.1,-29.2));
#373 = VECTOR('',#374,1.);
#374 = DIRECTION('',(0.,0.,1.));
#375 = ORIENTED_EDGE('',*,*,#376,.F.);
#376 = EDGE_CURVE('',#377,#369,#379,.T.);
#377 = VERTEX_POINT('',#378);
#378 = CARTESIAN_POINT('',(20.,-42.1,-29.2));
#379 = LINE('',#380,#381);
#380 = CARTESIAN_POINT('',(20.,-42.1,-29.2));
#381 = VECTOR('',#382,1.);
#382 = DIRECTION('',(0.,1.,0.));
#383 = ORIENTED_EDGE('',*,*,#384,.F.);
#384 = EDGE_CURVE('',#385,#377,#387,.T.);
#385 = VERTEX_POINT('',#386);
#386 = CARTESIAN_POINT('',(20.,-42.1,4.2));
#387 = LINE('',#388,#389);
#388 = CARTESIAN_POINT('',(20.,-42.1,4.2));
#389 = VECTOR('',#390,1.);
#390 = DIRECTION('',(0.,0.,-1.));
#391 = ORIENTED_EDGE('',*,*,#392,.F.);
#392 = EDGE_CURVE('',#393,#385,#395,.T.);
#393 = VERTEX_POINT('',#394);
#394 = CARTESIAN_POINT('',(20.,-40.1,4.2));
#395 = LINE('',#396,#397);
#396 = CARTESIAN_POINT('',(20.,-40.1,4.2));
#397 = VECTOR('',#398,1.);
#398 = DIRECTION('',(0.,-1.,0.));
#399 = ORIENTED_EDGE('',*,*,#400,.F.);
#400 = EDGE_CURVE('',#327,#393,#401,.T.);
#401 = LINE('',#402,#403);
#402 = CARTESIAN_POINT('',(20.,-40.1,3.4));
#403 = VECTOR('',#404,1.);
#404 = DIRECTION('',(0.,0.,1.));
#405 = PLANE('',#406);
#406 = AXIS2_PLACEMENT_3D('',#407,#408,#409);
#407 = CARTESIAN_POINT('',(20.,-41.69501187648,-12.53515439429));
#408 = DIRECTION('',(1.,0.,0.));
#409 = DIRECTION('',(0.,1.,0.));
#410 = ADVANCED_FACE('',(#411),#422,.T.);
#411 = FACE_BOUND('',#412,.T.);
#412 = EDGE_LOOP('',(#413,#414,#415,#421));
#413 = ORIENTED_EDGE('',*,*,#49,.T.);
#414 = ORIENTED_EDGE('',*,*,#326,.T.);
#415 = ORIENTED_EDGE('',*,*,#416,.F.);
#416 = EDGE_CURVE('',#112,#327,#417,.T.);
#417 = LINE('',#418,#419);
#418 = CARTESIAN_POINT('',(-20.,-40.1,3.4));
#419 = VECTOR('',#420,1.);
#420 = DIRECTION('',(1.,0.,0.));
#421 = ORIENTED_EDGE('',*,*,#111,.F.);
#422 = PLANE('',#423);
#423 = AXIS2_PLACEMENT_3D('',#424,#425,#426);
#424 = CARTESIAN_POINT('',(-20.,-39.1,3.4));
#425 = DIRECTION('',(0.,0.,-1.));
#426 = DIRECTION('',(0.,-1.,0.));
#427 = ADVANCED_FACE('',(#428),#439,.T.);
#428 = FACE_BOUND('',#429,.T.);
#429 = EDGE_LOOP('',(#430,#431,#432,#438));
#430 = ORIENTED_EDGE('',*,*,#416,.T.);
#431 = ORIENTED_EDGE('',*,*,#400,.T.);
#432 = ORIENTED_EDGE('',*,*,#433,.F.);
#433 = EDGE_CURVE('',#185,#393,#434,.T.);
#434 = LINE('',#435,#436);
#435 = CARTESIAN_POINT('',(-20.,-40.1,4.2));
#436 = VECTOR('',#437,1.);
#437 = DIRECTION('',(1.,0.,0.));
#438 = ORIENTED_EDGE('',*,*,#192,.F.);
#439 = PLANE('',#440);
#440 = AXIS2_PLACEMENT_3D('',#441,#442,#443);
#441 = CARTESIAN_POINT('',(-20.,-40.1,3.4));
#442 = DIRECTION('',(0.,-1.,0.));
#443 = DIRECTION('',(0.,0.,1.));
#444 = ADVANCED_FACE('',(#445),#456,.T.);
#445 = FACE_BOUND('',#446,.T.);
#446 = EDGE_LOOP('',(#447,#448,#449,#455));
#447 = ORIENTED_EDGE('',*,*,#433,.T.);
#448 = ORIENTED_EDGE('',*,*,#392,.T.);
#449 = ORIENTED_EDGE('',*,*,#450,.F.);
#450 = EDGE_CURVE('',#177,#385,#451,.T.);
#451 = LINE('',#452,#453);
#452 = CARTESIAN_POINT('',(-20.,-42.1,4.2));
#453 = VECTOR('',#454,1.);
#454 = DIRECTION('',(1.,0.,0.));
#455 = ORIENTED_EDGE('',*,*,#184,.F.);
#456 = PLANE('',#457);
#457 = AXIS2_PLACEMENT_3D('',#458,#459,#460);
#458 = CARTESIAN_POINT('',(-20.,-40.1,4.2));
#459 = DIRECTION('',(0.,0.,-1.));
#460 = DIRECTION('',(0.,-1.,0.));
#461 = ADVANCED_FACE('',(#462,#473,#484,#495),#506,.T.);
#462 = FACE_BOUND('',#463,.T.);
#463 = EDGE_LOOP('',(#464,#465,#466,#472));
#464 = ORIENTED_EDGE('',*,*,#450,.T.);
#465 = ORIENTED_EDGE('',*,*,#384,.T.);
#466 = ORIENTED_EDGE('',*,*,#467,.F.);
#467 = EDGE_CURVE('',#169,#377,#468,.T.);
#468 = LINE('',#469,#470);
#469 = CARTESIAN_POINT('',(-20.,-42.1,-29.2));
#470 = VECTOR('',#471,1.);
#471 = DIRECTION('',(1.,0.,0.));
#472 = ORIENTED_EDGE('',*,*,#176,.F.);
#473 = FACE_BOUND('',#474,.T.);
#474 = EDGE_LOOP('',(#475));
#475 = ORIENTED_EDGE('',*,*,#476,.F.);
#476 = EDGE_CURVE('',#477,#477,#479,.T.);
#477 = VERTEX_POINT('',#478);
#478 = CARTESIAN_POINT('',(6.9,-42.1,-12.5));
#479 = CIRCLE('',#480,3.1);
#480 = AXIS2_PLACEMENT_3D('',#481,#482,#483);
#481 = CARTESIAN_POINT('',(10.,-42.1,-12.5));
#482 = DIRECTION('',(0.,1.,-2.22044604925E-16));
#483 = DIRECTION('',(-1.,0.,0.));
#484 = FACE_BOUND('',#485,.T.);
#485 = EDGE_LOOP('',(#486));
#486 = ORIENTED_EDGE('',*,*,#487,.F.);
#487 = EDGE_CURVE('',#488,#488,#490,.T.);
#488 = VERTEX_POINT('',#489);
#489 = CARTESIAN_POINT('',(-3.1,-42.1,-12.5));
#490 = CIRCLE('',#491,3.1);
#491 = AXIS2_PLACEMENT_3D('',#492,#493,#494);
#492 = CARTESIAN_POINT('',(-8.E-16,-42.1,-12.5));
#493 = DIRECTION('',(0.,1.,-2.22044604925E-16));
#494 = DIRECTION('',(-1.,0.,0.));
#495 = FACE_BOUND('',#496,.T.);
#496 = EDGE_LOOP('',(#497));
#497 = ORIENTED_EDGE('',*,*,#498,.F.);
#498 = EDGE_CURVE('',#499,#499,#501,.T.);
#499 = VERTEX_POINT('',#500);
#500 = CARTESIAN_POINT('',(-13.1,-42.1,-12.5));
#501 = CIRCLE('',#502,3.1);
#502 = AXIS2_PLACEMENT_3D('',#503,#504,#505);
#503 = CARTESIAN_POINT('',(-10.,-42.1,-12.5));
#504 = DIRECTION('',(0.,1.,-2.22044604925E-16));
#505 = DIRECTION('',(-1.,0.,0.));
#506 = PLANE('',#507);
#507 = AXIS2_PLACEMENT_3D('',#508,#509,#510);
#508 = CARTESIAN_POINT('',(-20.,-42.1,4.2));
#509 = DIRECTION('',(0.,1.,0.));
#510 = DIRECTION('',(0.,0.,-1.));
#511 = ADVANCED_FACE('',(#512),#523,.T.);
#512 = FACE_BOUND('',#513,.T.);
#513 = EDGE_LOOP('',(#514,#515,#516,#522));
#514 = ORIENTED_EDGE('',*,*,#467,.T.);
#515 = ORIENTED_EDGE('',*,*,#376,.T.);
#516 = ORIENTED_EDGE('',*,*,#517,.F.);
#517 = EDGE_CURVE('',#161,#369,#518,.T.);
#518 = LINE('',#519,#520);
#519 = CARTESIAN_POINT('',(-20.,-40.1,-29.2));
#520 = VECTOR('',#521,1.);
#521 = DIRECTION('',(1.,0.,0.));
#522 = ORIENTED_EDGE('',*,*,#168,.F.);
#523 = PLANE('',#524);
#524 = AXIS2_PLACEMENT_3D('',#525,#526,#527);
#525 = CARTESIAN_POINT('',(-20.,-42.1,-29.2));
#526 = DIRECTION('',(0.,0.,1.));
#527 = DIRECTION('',(0.,1.,0.));
#528 = ADVANCED_FACE('',(#529),#540,.T.);
#529 = FACE_BOUND('',#530,.T.);
#530 = EDGE_LOOP('',(#531,#532,#533,#539));
#531 = ORIENTED_EDGE('',*,*,#517,.T.);
#532 = ORIENTED_EDGE('',*,*,#368,.T.);
#533 = ORIENTED_EDGE('',*,*,#534,.F.);
#534 = EDGE_CURVE('',#153,#361,#535,.T.);
#535 = LINE('',#536,#537);
#536 = CARTESIAN_POINT('',(-20.,-40.1,-28.2));
#537 = VECTOR('',#538,1.);
#538 = DIRECTION('',(1.,0.,0.));
#539 = ORIENTED_EDGE('',*,*,#160,.F.);
#540 = PLANE('',#541);
#541 = AXIS2_PLACEMENT_3D('',#542,#543,#544);
#542 = CARTESIAN_POINT('',(-20.,-40.1,-29.2));
#543 = DIRECTION('',(0.,-1.,0.));
#544 = DIRECTION('',(0.,0.,1.));
#545 = ADVANCED_FACE('',(#546),#557,.F.);
#546 = FACE_BOUND('',#547,.F.);
#547 = EDGE_LOOP('',(#548,#554,#555,#556));
#548 = ORIENTED_EDGE('',*,*,#549,.T.);
#549 = EDGE_CURVE('',#145,#353,#550,.T.);
#550 = LINE('',#551,#552);
#551 = CARTESIAN_POINT('',(-20.,-39.1,-28.2));
#552 = VECTOR('',#553,1.);
#553 = DIRECTION('',(1.,0.,0.));
#554 = ORIENTED_EDGE('',*,*,#360,.T.);
#555 = ORIENTED_EDGE('',*,*,#534,.F.);
#556 = ORIENTED_EDGE('',*,*,#152,.F.);
#557 = PLANE('',#558);
#558 = AXIS2_PLACEMENT_3D('',#559,#560,#561);
#559 = CARTESIAN_POINT('',(-20.,-39.1,-28.2));
#560 = DIRECTION('',(0.,0.,-1.));
#561 = DIRECTION('',(0.,-1.,0.));
#562 = ADVANCED_FACE('',(#563),#606,.F.);
#563 = FACE_BOUND('',#564,.F.);
#564 = EDGE_LOOP('',(#565,#575,#583,#591,#597,#598,#599,#600));
#565 = ORIENTED_EDGE('',*,*,#566,.T.);
#566 = EDGE_CURVE('',#567,#569,#571,.T.);
#567 = VERTEX_POINT('',#568);
#568 = CARTESIAN_POINT('',(-10.05,-39.1,-29.9));
#569 = VERTEX_POINT('',#570);
#570 = CARTESIAN_POINT('',(-10.9737604307,-39.1,-31.5));
#571 = LINE('',#572,#573);
#572 = CARTESIAN_POINT('',(-11.64016016151,-39.1,-32.65423819191));
#573 = VECTOR('',#574,1.);
#574 = DIRECTION('',(-0.5,-0.,-0.866025403784));
#575 = ORIENTED_EDGE('',*,*,#576,.T.);
#576 = EDGE_CURVE('',#569,#577,#579,.T.);
#577 = VERTEX_POINT('',#578);
#578 = CARTESIAN_POINT('',(10.973760430703,-39.1,-31.5));
#579 = LINE('',#580,#581);
#580 = CARTESIAN_POINT('',(-20.,-39.1,-31.5));
#581 = VECTOR('',#582,1.);
#582 = DIRECTION('',(1.,0.,0.));
#583 = ORIENTED_EDGE('',*,*,#584,.T.);
#584 = EDGE_CURVE('',#577,#585,#587,.T.);
#585 = VERTEX_POINT('',#586);
#586 = CARTESIAN_POINT('',(10.05,-39.1,-29.9));
#587 = LINE('',#588,#589);
#588 = CARTESIAN_POINT('',(7.102040376865,-39.1,-24.79398415406));
#589 = VECTOR('',#590,1.);
#590 = DIRECTION('',(-0.5,0.,0.866025403784));
#591 = ORIENTED_EDGE('',*,*,#592,.T.);
#592 = EDGE_CURVE('',#585,#345,#593,.T.);
#593 = LINE('',#594,#595);
#594 = CARTESIAN_POINT('',(-4.975,-39.1,-29.9));
#595 = VECTOR('',#596,1.);
#596 = DIRECTION('',(1.,0.,0.));
#597 = ORIENTED_EDGE('',*,*,#352,.T.);
#598 = ORIENTED_EDGE('',*,*,#549,.F.);
#599 = ORIENTED_EDGE('',*,*,#144,.F.);
#600 = ORIENTED_EDGE('',*,*,#601,.T.);
#601 = EDGE_CURVE('',#137,#567,#602,.T.);
#602 = LINE('',#603,#604);
#603 = CARTESIAN_POINT('',(-20.,-39.1,-29.9));
#604 = VECTOR('',#605,1.);
#605 = DIRECTION('',(1.,0.,0.));
#606 = PLANE('',#607);
#607 = AXIS2_PLACEMENT_3D('',#608,#609,#610);
#608 = CARTESIAN_POINT('',(-20.,-39.1,-31.5));
#609 = DIRECTION('',(0.,-1.,0.));
#610 = DIRECTION('',(0.,0.,1.));
#611 = ADVANCED_FACE('',(#612),#630,.T.);
#612 = FACE_BOUND('',#613,.T.);
#613 = EDGE_LOOP('',(#614,#622,#623,#624));
#614 = ORIENTED_EDGE('',*,*,#615,.F.);
#615 = EDGE_CURVE('',#129,#616,#618,.T.);
#616 = VERTEX_POINT('',#617);
#617 = CARTESIAN_POINT('',(-10.05,-44.1,-29.9));
#618 = LINE('',#619,#620);
#619 = CARTESIAN_POINT('',(-20.,-44.1,-29.9));
#620 = VECTOR('',#621,1.);
#621 = DIRECTION('',(1.,0.,0.));
#622 = ORIENTED_EDGE('',*,*,#136,.T.);
#623 = ORIENTED_EDGE('',*,*,#601,.T.);
#624 = ORIENTED_EDGE('',*,*,#625,.F.);
#625 = EDGE_CURVE('',#616,#567,#626,.T.);
#626 = LINE('',#627,#628);
#627 = CARTESIAN_POINT('',(-10.05,-44.1,-29.9));
#628 = VECTOR('',#629,1.);
#629 = DIRECTION('',(0.,1.,-2.22044604925E-16));
#630 = PLANE('',#631);
#631 = AXIS2_PLACEMENT_3D('',#632,#633,#634);
#632 = CARTESIAN_POINT('',(-20.,-44.1,-29.9));
#633 = DIRECTION('',(0.,-2.22044604925E-16,-1.));
#634 = DIRECTION('',(1.,0.,0.));
#635 = ADVANCED_FACE('',(#636,#676,#687,#698),#709,.F.);
#636 = FACE_BOUND('',#637,.F.);
#637 = EDGE_LOOP('',(#638,#639,#640,#641,#642,#643,#644,#645,#653,#661,
    #669,#675));
#638 = ORIENTED_EDGE('',*,*,#128,.F.);
#639 = ORIENTED_EDGE('',*,*,#216,.T.);
#640 = ORIENTED_EDGE('',*,*,#230,.T.);
#641 = ORIENTED_EDGE('',*,*,#254,.T.);
#642 = ORIENTED_EDGE('',*,*,#278,.T.);
#643 = ORIENTED_EDGE('',*,*,#312,.T.);
#644 = ORIENTED_EDGE('',*,*,#336,.T.);
#645 = ORIENTED_EDGE('',*,*,#646,.F.);
#646 = EDGE_CURVE('',#647,#337,#649,.T.);
#647 = VERTEX_POINT('',#648);
#648 = CARTESIAN_POINT('',(10.05,-44.1,-29.9));
#649 = LINE('',#650,#651);
#650 = CARTESIAN_POINT('',(10.05,-44.1,-29.9));
#651 = VECTOR('',#652,1.);
#652 = DIRECTION('',(1.,0.,0.));
#653 = ORIENTED_EDGE('',*,*,#654,.F.);
#654 = EDGE_CURVE('',#655,#647,#657,.T.);
#655 = VERTEX_POINT('',#656);
#656 = CARTESIAN_POINT('',(10.973760430703,-44.1,-31.5));
#657 = LINE('',#658,#659);
#658 = CARTESIAN_POINT('',(10.973760430703,-44.1,-31.5));
#659 = VECTOR('',#660,1.);
#660 = DIRECTION('',(-0.5,1.922962686384E-16,0.866025403784));
#661 = ORIENTED_EDGE('',*,*,#662,.F.);
#662 = EDGE_CURVE('',#663,#655,#665,.T.);
#663 = VERTEX_POINT('',#664);
#664 = CARTESIAN_POINT('',(-10.9737604307,-44.1,-31.5));
#665 = LINE('',#666,#667);
#666 = CARTESIAN_POINT('',(-20.,-44.1,-31.5));
#667 = VECTOR('',#668,1.);
#668 = DIRECTION('',(1.,0.,0.));
#669 = ORIENTED_EDGE('',*,*,#670,.F.);
#670 = EDGE_CURVE('',#616,#663,#671,.T.);
#671 = LINE('',#672,#673);
#672 = CARTESIAN_POINT('',(-10.05,-44.1,-29.9));
#673 = VECTOR('',#674,1.);
#674 = DIRECTION('',(-0.5,-1.922962686384E-16,-0.866025403784));
#675 = ORIENTED_EDGE('',*,*,#615,.F.);
#676 = FACE_BOUND('',#677,.F.);
#677 = EDGE_LOOP('',(#678));
#678 = ORIENTED_EDGE('',*,*,#679,.F.);
#679 = EDGE_CURVE('',#680,#680,#682,.T.);
#680 = VERTEX_POINT('',#681);
#681 = CARTESIAN_POINT('',(8.4,-44.1,-12.5));
#682 = CIRCLE('',#683,1.6);
#683 = AXIS2_PLACEMENT_3D('',#684,#685,#686);
#684 = CARTESIAN_POINT('',(10.,-44.1,-12.5));
#685 = DIRECTION('',(0.,1.,-2.22044604925E-16));
#686 = DIRECTION('',(-1.,0.,0.));
#687 = FACE_BOUND('',#688,.F.);
#688 = EDGE_LOOP('',(#689));
#689 = ORIENTED_EDGE('',*,*,#690,.F.);
#690 = EDGE_CURVE('',#691,#691,#693,.T.);
#691 = VERTEX_POINT('',#692);
#692 = CARTESIAN_POINT('',(-1.6,-44.1,-12.5));
#693 = CIRCLE('',#694,1.6);
#694 = AXIS2_PLACEMENT_3D('',#695,#696,#697);
#695 = CARTESIAN_POINT('',(-8.E-16,-44.1,-12.5));
#696 = DIRECTION('',(0.,1.,-2.22044604925E-16));
#697 = DIRECTION('',(-1.,0.,0.));
#698 = FACE_BOUND('',#699,.F.);
#699 = EDGE_LOOP('',(#700));
#700 = ORIENTED_EDGE('',*,*,#701,.F.);
#701 = EDGE_CURVE('',#702,#702,#704,.T.);
#702 = VERTEX_POINT('',#703);
#703 = CARTESIAN_POINT('',(-11.6,-44.1,-12.5));
#704 = CIRCLE('',#705,1.6);
#705 = AXIS2_PLACEMENT_3D('',#706,#707,#708);
#706 = CARTESIAN_POINT('',(-10.,-44.1,-12.5));
#707 = DIRECTION('',(0.,1.,-2.22044604925E-16));
#708 = DIRECTION('',(-1.,0.,0.));
#709 = PLANE('',#710);
#710 = AXIS2_PLACEMENT_3D('',#711,#712,#713);
#711 = CARTESIAN_POINT('',(-20.,-44.1,6.5));
#712 = DIRECTION('',(0.,1.,0.));
#713 = DIRECTION('',(0.,0.,-1.));
#714 = ADVANCED_FACE('',(#715),#726,.T.);
#715 = FACE_BOUND('',#716,.T.);
#716 = EDGE_LOOP('',(#717,#718,#724,#725));
#717 = ORIENTED_EDGE('',*,*,#646,.F.);
#718 = ORIENTED_EDGE('',*,*,#719,.T.);
#719 = EDGE_CURVE('',#647,#585,#720,.T.);
#720 = LINE('',#721,#722);
#721 = CARTESIAN_POINT('',(10.05,-44.1,-29.9));
#722 = VECTOR('',#723,1.);
#723 = DIRECTION('',(0.,1.,-2.22044604925E-16));
#724 = ORIENTED_EDGE('',*,*,#592,.T.);
#725 = ORIENTED_EDGE('',*,*,#344,.F.);
#726 = PLANE('',#727);
#727 = AXIS2_PLACEMENT_3D('',#728,#729,#730);
#728 = CARTESIAN_POINT('',(10.05,-44.1,-29.9));
#729 = DIRECTION('',(0.,-2.22044604925E-16,-1.));
#730 = DIRECTION('',(1.,0.,0.));
#731 = ADVANCED_FACE('',(#732),#751,.F.);
#732 = FACE_BOUND('',#733,.F.);
#733 = EDGE_LOOP('',(#734,#742,#749,#750));
#734 = ORIENTED_EDGE('',*,*,#735,.T.);
#735 = EDGE_CURVE('',#477,#736,#738,.T.);
#736 = VERTEX_POINT('',#737);
#737 = CARTESIAN_POINT('',(6.9,-43.3,-12.5));
#738 = LINE('',#739,#740);
#739 = CARTESIAN_POINT('',(6.9,-42.1,-12.5));
#740 = VECTOR('',#741,1.);
#741 = DIRECTION('',(0.,-1.,2.22044604925E-16));
#742 = ORIENTED_EDGE('',*,*,#743,.T.);
#743 = EDGE_CURVE('',#736,#736,#744,.T.);
#744 = CIRCLE('',#745,3.1);
#745 = AXIS2_PLACEMENT_3D('',#746,#747,#748);
#746 = CARTESIAN_POINT('',(10.,-43.3,-12.5));
#747 = DIRECTION('',(0.,1.,-2.22044604925E-16));
#748 = DIRECTION('',(-1.,0.,0.));
#749 = ORIENTED_EDGE('',*,*,#735,.F.);
#750 = ORIENTED_EDGE('',*,*,#476,.F.);
#751 = CYLINDRICAL_SURFACE('',#752,3.1);
#752 = AXIS2_PLACEMENT_3D('',#753,#754,#755);
#753 = CARTESIAN_POINT('',(10.,-42.1,-12.5));
#754 = DIRECTION('',(0.,1.,-2.22044604925E-16));
#755 = DIRECTION('',(-1.,0.,0.));
#756 = ADVANCED_FACE('',(#757),#776,.F.);
#757 = FACE_BOUND('',#758,.F.);
#758 = EDGE_LOOP('',(#759,#767,#774,#775));
#759 = ORIENTED_EDGE('',*,*,#760,.T.);
#760 = EDGE_CURVE('',#488,#761,#763,.T.);
#761 = VERTEX_POINT('',#762);
#762 = CARTESIAN_POINT('',(-3.1,-43.3,-12.5));
#763 = LINE('',#764,#765);
#764 = CARTESIAN_POINT('',(-3.1,-42.1,-12.5));
#765 = VECTOR('',#766,1.);
#766 = DIRECTION('',(0.,-1.,2.22044604925E-16));
#767 = ORIENTED_EDGE('',*,*,#768,.T.);
#768 = EDGE_CURVE('',#761,#761,#769,.T.);
#769 = CIRCLE('',#770,3.1);
#770 = AXIS2_PLACEMENT_3D('',#771,#772,#773);
#771 = CARTESIAN_POINT('',(-8.E-16,-43.3,-12.5));
#772 = DIRECTION('',(0.,1.,-2.22044604925E-16));
#773 = DIRECTION('',(-1.,0.,0.));
#774 = ORIENTED_EDGE('',*,*,#760,.F.);
#775 = ORIENTED_EDGE('',*,*,#487,.F.);
#776 = CYLINDRICAL_SURFACE('',#777,3.1);
#777 = AXIS2_PLACEMENT_3D('',#778,#779,#780);
#778 = CARTESIAN_POINT('',(-8.E-16,-42.1,-12.5));
#779 = DIRECTION('',(0.,1.,-2.22044604925E-16));
#780 = DIRECTION('',(-1.,0.,0.));
#781 = ADVANCED_FACE('',(#782),#801,.F.);
#782 = FACE_BOUND('',#783,.F.);
#783 = EDGE_LOOP('',(#784,#792,#799,#800));
#784 = ORIENTED_EDGE('',*,*,#785,.T.);
#785 = EDGE_CURVE('',#499,#786,#788,.T.);
#786 = VERTEX_POINT('',#787);
#787 = CARTESIAN_POINT('',(-13.1,-43.3,-12.5));
#788 = LINE('',#789,#790);
#789 = CARTESIAN_POINT('',(-13.1,-42.1,-12.5));
#790 = VECTOR('',#791,1.);
#791 = DIRECTION('',(0.,-1.,2.22044604925E-16));
#792 = ORIENTED_EDGE('',*,*,#793,.T.);
#793 = EDGE_CURVE('',#786,#786,#794,.T.);
#794 = CIRCLE('',#795,3.1);
#795 = AXIS2_PLACEMENT_3D('',#796,#797,#798);
#796 = CARTESIAN_POINT('',(-10.,-43.3,-12.5));
#797 = DIRECTION('',(0.,1.,-2.22044604925E-16));
#798 = DIRECTION('',(-1.,0.,0.));
#799 = ORIENTED_EDGE('',*,*,#785,.F.);
#800 = ORIENTED_EDGE('',*,*,#498,.F.);
#801 = CYLINDRICAL_SURFACE('',#802,3.1);
#802 = AXIS2_PLACEMENT_3D('',#803,#804,#805);
#803 = CARTESIAN_POINT('',(-10.,-42.1,-12.5));
#804 = DIRECTION('',(0.,1.,-2.22044604925E-16));
#805 = DIRECTION('',(-1.,0.,0.));
#806 = ADVANCED_FACE('',(#807),#818,.T.);
#807 = FACE_BOUND('',#808,.T.);
#808 = EDGE_LOOP('',(#809,#810,#811,#812));
#809 = ORIENTED_EDGE('',*,*,#670,.F.);
#810 = ORIENTED_EDGE('',*,*,#625,.T.);
#811 = ORIENTED_EDGE('',*,*,#566,.T.);
#812 = ORIENTED_EDGE('',*,*,#813,.F.);
#813 = EDGE_CURVE('',#663,#569,#814,.T.);
#814 = LINE('',#815,#816);
#815 = CARTESIAN_POINT('',(-10.9737604307,-44.1,-31.5));
#816 = VECTOR('',#817,1.);
#817 = DIRECTION('',(0.,1.,-2.22044604925E-16));
#818 = PLANE('',#819);
#819 = AXIS2_PLACEMENT_3D('',#820,#821,#822);
#820 = CARTESIAN_POINT('',(-10.05,-44.1,-29.9));
#821 = DIRECTION('',(-0.866025403784,1.110223024625E-16,0.5));
#822 = DIRECTION('',(-0.5,-1.922962686384E-16,-0.866025403784));
#823 = ADVANCED_FACE('',(#824),#835,.T.);
#824 = FACE_BOUND('',#825,.T.);
#825 = EDGE_LOOP('',(#826,#827,#833,#834));
#826 = ORIENTED_EDGE('',*,*,#654,.F.);
#827 = ORIENTED_EDGE('',*,*,#828,.T.);
#828 = EDGE_CURVE('',#655,#577,#829,.T.);
#829 = LINE('',#830,#831);
#830 = CARTESIAN_POINT('',(10.973760430703,-44.1,-31.5));
#831 = VECTOR('',#832,1.);
#832 = DIRECTION('',(0.,1.,-2.22044604925E-16));
#833 = ORIENTED_EDGE('',*,*,#584,.T.);
#834 = ORIENTED_EDGE('',*,*,#719,.F.);
#835 = PLANE('',#836);
#836 = AXIS2_PLACEMENT_3D('',#837,#838,#839);
#837 = CARTESIAN_POINT('',(10.973760430703,-44.1,-31.5));
#838 = DIRECTION('',(0.866025403784,1.110223024625E-16,0.5));
#839 = DIRECTION('',(-0.5,1.922962686384E-16,0.866025403784));
#840 = ADVANCED_FACE('',(#841),#847,.F.);
#841 = FACE_BOUND('',#842,.F.);
#842 = EDGE_LOOP('',(#843,#844,#845,#846));
#843 = ORIENTED_EDGE('',*,*,#813,.F.);
#844 = ORIENTED_EDGE('',*,*,#662,.T.);
#845 = ORIENTED_EDGE('',*,*,#828,.T.);
#846 = ORIENTED_EDGE('',*,*,#576,.F.);
#847 = PLANE('',#848);
#848 = AXIS2_PLACEMENT_3D('',#849,#850,#851);
#849 = CARTESIAN_POINT('',(-20.,-44.1,-31.5));
#850 = DIRECTION('',(0.,0.,1.));
#851 = DIRECTION('',(0.,1.,0.));
#852 = ADVANCED_FACE('',(#853),#872,.F.);
#853 = FACE_BOUND('',#854,.F.);
#854 = EDGE_LOOP('',(#855,#864,#870,#871));
#855 = ORIENTED_EDGE('',*,*,#856,.F.);
#856 = EDGE_CURVE('',#857,#857,#859,.T.);
#857 = VERTEX_POINT('',#858);
#858 = CARTESIAN_POINT('',(8.4,-43.3,-12.5));
#859 = CIRCLE('',#860,1.6);
#860 = AXIS2_PLACEMENT_3D('',#861,#862,#863);
#861 = CARTESIAN_POINT('',(10.,-43.3,-12.5));
#862 = DIRECTION('',(0.,1.,-2.22044604925E-16));
#863 = DIRECTION('',(-1.,0.,0.));
#864 = ORIENTED_EDGE('',*,*,#865,.T.);
#865 = EDGE_CURVE('',#857,#680,#866,.T.);
#866 = LINE('',#867,#868);
#867 = CARTESIAN_POINT('',(8.4,-42.1,-12.5));
#868 = VECTOR('',#869,1.);
#869 = DIRECTION('',(0.,-1.,2.22044604925E-16));
#870 = ORIENTED_EDGE('',*,*,#679,.T.);
#871 = ORIENTED_EDGE('',*,*,#865,.F.);
#872 = CYLINDRICAL_SURFACE('',#873,1.6);
#873 = AXIS2_PLACEMENT_3D('',#874,#875,#876);
#874 = CARTESIAN_POINT('',(10.,-42.1,-12.5));
#875 = DIRECTION('',(0.,1.,-2.22044604925E-16));
#876 = DIRECTION('',(-1.,0.,0.));
#877 = ADVANCED_FACE('',(#878),#897,.F.);
#878 = FACE_BOUND('',#879,.F.);
#879 = EDGE_LOOP('',(#880,#889,#895,#896));
#880 = ORIENTED_EDGE('',*,*,#881,.F.);
#881 = EDGE_CURVE('',#882,#882,#884,.T.);
#882 = VERTEX_POINT('',#883);
#883 = CARTESIAN_POINT('',(-1.6,-43.3,-12.5));
#884 = CIRCLE('',#885,1.6);
#885 = AXIS2_PLACEMENT_3D('',#886,#887,#888);
#886 = CARTESIAN_POINT('',(-8.E-16,-43.3,-12.5));
#887 = DIRECTION('',(0.,1.,-2.22044604925E-16));
#888 = DIRECTION('',(-1.,0.,0.));
#889 = ORIENTED_EDGE('',*,*,#890,.T.);
#890 = EDGE_CURVE('',#882,#691,#891,.T.);
#891 = LINE('',#892,#893);
#892 = CARTESIAN_POINT('',(-1.6,-42.1,-12.5));
#893 = VECTOR('',#894,1.);
#894 = DIRECTION('',(0.,-1.,2.22044604925E-16));
#895 = ORIENTED_EDGE('',*,*,#690,.T.);
#896 = ORIENTED_EDGE('',*,*,#890,.F.);
#897 = CYLINDRICAL_SURFACE('',#898,1.6);
#898 = AXIS2_PLACEMENT_3D('',#899,#900,#901);
#899 = CARTESIAN_POINT('',(-8.E-16,-42.1,-12.5));
#900 = DIRECTION('',(0.,1.,-2.22044604925E-16));
#901 = DIRECTION('',(-1.,0.,0.));
#902 = ADVANCED_FACE('',(#903),#922,.F.);
#903 = FACE_BOUND('',#904,.F.);
#904 = EDGE_LOOP('',(#905,#914,#920,#921));
#905 = ORIENTED_EDGE('',*,*,#906,.F.);
#906 = EDGE_CURVE('',#907,#907,#909,.T.);
#907 = VERTEX_POINT('',#908);
#908 = CARTESIAN_POINT('',(-11.6,-43.3,-12.5));
#909 = CIRCLE('',#910,1.6);
#910 = AXIS2_PLACEMENT_3D('',#911,#912,#913);
#911 = CARTESIAN_POINT('',(-10.,-43.3,-12.5));
#912 = DIRECTION('',(0.,1.,-2.22044604925E-16));
#913 = DIRECTION('',(-1.,0.,0.));
#914 = ORIENTED_EDGE('',*,*,#915,.T.);
#915 = EDGE_CURVE('',#907,#702,#916,.T.);
#916 = LINE('',#917,#918);
#917 = CARTESIAN_POINT('',(-11.6,-42.1,-12.5));
#918 = VECTOR('',#919,1.);
#919 = DIRECTION('',(0.,-1.,2.22044604925E-16));
#920 = ORIENTED_EDGE('',*,*,#701,.T.);
#921 = ORIENTED_EDGE('',*,*,#915,.F.);
#922 = CYLINDRICAL_SURFACE('',#923,1.6);
#923 = AXIS2_PLACEMENT_3D('',#924,#925,#926);
#924 = CARTESIAN_POINT('',(-10.,-42.1,-12.5));
#925 = DIRECTION('',(0.,1.,-2.22044604925E-16));
#926 = DIRECTION('',(-1.,0.,0.));
#927 = ADVANCED_FACE('',(#928,#931),#934,.T.);
#928 = FACE_BOUND('',#929,.T.);
#929 = EDGE_LOOP('',(#930));
#930 = ORIENTED_EDGE('',*,*,#743,.T.);
#931 = FACE_BOUND('',#932,.F.);
#932 = EDGE_LOOP('',(#933));
#933 = ORIENTED_EDGE('',*,*,#856,.T.);
#934 = PLANE('',#935);
#935 = AXIS2_PLACEMENT_3D('',#936,#937,#938);
#936 = CARTESIAN_POINT('',(-3.758035825241E-16,-43.3,-12.5));
#937 = DIRECTION('',(0.,1.,-2.22044604925E-16));
#938 = DIRECTION('',(-1.,0.,0.));
#939 = ADVANCED_FACE('',(#940,#943),#946,.T.);
#940 = FACE_BOUND('',#941,.T.);
#941 = EDGE_LOOP('',(#942));
#942 = ORIENTED_EDGE('',*,*,#768,.T.);
#943 = FACE_BOUND('',#944,.F.);
#944 = EDGE_LOOP('',(#945));
#945 = ORIENTED_EDGE('',*,*,#881,.T.);
#946 = PLANE('',#947);
#947 = AXIS2_PLACEMENT_3D('',#948,#949,#950);
#948 = CARTESIAN_POINT('',(-3.758035825241E-16,-43.3,-12.5));
#949 = DIRECTION('',(0.,1.,-2.22044604925E-16));
#950 = DIRECTION('',(-1.,0.,0.));
#951 = ADVANCED_FACE('',(#952,#955),#958,.T.);
#952 = FACE_BOUND('',#953,.T.);
#953 = EDGE_LOOP('',(#954));
#954 = ORIENTED_EDGE('',*,*,#793,.T.);
#955 = FACE_BOUND('',#956,.F.);
#956 = EDGE_LOOP('',(#957));
#957 = ORIENTED_EDGE('',*,*,#906,.T.);
#958 = PLANE('',#959);
#959 = AXIS2_PLACEMENT_3D('',#960,#961,#962);
#960 = CARTESIAN_POINT('',(-3.758035825241E-16,-43.3,-12.5));
#961 = DIRECTION('',(0.,1.,-2.22044604925E-16));
#962 = DIRECTION('',(-1.,0.,0.));
#963 = ( GEOMETRIC_REPRESENTATION_CONTEXT(3) 
GLOBAL_UNCERTAINTY_ASSIGNED_CONTEXT((#967)) GLOBAL_UNIT_ASSIGNED_CONTEXT
((#964,#965,#966)) REPRESENTATION_CONTEXT('Context #1',
  '3D Context with UNIT and UNCERTAINTY') );
#964 = ( LENGTH_UNIT() NAMED_UNIT(*) SI_UNIT(.MILLI.,.METRE.) );
#965 = ( NAMED_UNIT(*) PLANE_ANGLE_UNIT() SI_UNIT($,.RADIAN.) );
#966 = ( NAMED_UNIT(*) SI_UNIT($,.STERADIAN.) SOLID_ANGLE_UNIT() );
#967 = UNCERTAINTY_MEASURE_WITH_UNIT(LENGTH_MEASURE(1.E-05),#964,
  'distance_accuracy_value','confusion accuracy');
#968 = CONTEXT_DEPENDENT_SHAPE_REPRESENTATION(#969,#971);
#969 = ( REPRESENTATION_RELATIONSHIP('','',#32,#10) 
REPRESENTATION_RELATIONSHIP_WITH_TRANSFORMATION(#970) 
SHAPE_REPRESENTATION_RELATIONSHIP() );
#970 = ITEM_DEFINED_TRANSFORMATION('','',#11,#15);
#971 = PRODUCT_DEFINITION_SHAPE('Placement','Placement of an item',#972
  );
#972 = NEXT_ASSEMBLY_USAGE_OCCURRENCE('4','Body','',#5,#27,$);
#973 = PRODUCT_RELATED_PRODUCT_CATEGORY('part',$,(#29));
#974 = MECHANICAL_DESIGN_GEOMETRIC_PRESENTATION_REPRESENTATION('',(#975)
  ,#963);
#975 = STYLED_ITEM('color',(#976),#33);
#976 = PRESENTATION_STYLE_ASSIGNMENT((#977,#983));
#977 = SURFACE_STYLE_USAGE(.BOTH.,#978);
#978 = SURFACE_SIDE_STYLE('',(#979));
#979 = SURFACE_STYLE_FILL_AREA(#980);
#980 = FILL_AREA_STYLE('',(#981));
#981 = FILL_AREA_STYLE_COLOUR('',#982);
#982 = COLOUR_RGB('',0.447058818107,0.474509808674,0.501960817233);
#983 = CURVE_STYLE('',#984,POSITIVE_LENGTH_MEASURE(0.1),#985);
#984 = DRAUGHTING_PRE_DEFINED_CURVE_FONT('continuous');
#985 = COLOUR_RGB('',9.803921802644E-02,9.803921802644E-02,
  9.803921802644E-02);
ENDSEC;
END-ISO-10303-21;
