ISO-10303-21;
HEADER;
FILE_DESCRIPTION(('FreeCAD Model'),'2;1');
FILE_NAME('Open CASCADE Shape Model','2026-08-02T17:54:10',(''),(''),
  'Open CASCADE STEP processor 7.8','FreeCAD','Unknown');
FILE_SCHEMA(('AUTOMOTIVE_DESIGN { 1 0 10303 214 1 1 1 1 }'));
ENDSEC;
DATA;
#1 = APPLICATION_PROTOCOL_DEFINITION('international standard',
  'automotive_design',2000,#2);
#2 = APPLICATION_CONTEXT(
  'core data for automotive mechanical design processes');
#3 = SHAPE_DEFINITION_REPRESENTATION(#4,#10);
#4 = PRODUCT_DEFINITION_SHAPE('','',#5);
#5 = PRODUCT_DEFINITION('design','',#6,#9);
#6 = PRODUCT_DEFINITION_FORMATION('','',#7);
#7 = PRODUCT('SnappyBracket','SnappyBracket','',(#8));
#8 = PRODUCT_CONTEXT('',#2,'mechanical');
#9 = PRODUCT_DEFINITION_CONTEXT('part definition',#2,'design');
#10 = ADVANCED_BREP_SHAPE_REPRESENTATION('',(#11,#15),#825);
#11 = AXIS2_PLACEMENT_3D('',#12,#13,#14);
#12 = CARTESIAN_POINT('',(0.,0.,0.));
#13 = DIRECTION('',(0.,0.,1.));
#14 = DIRECTION('',(1.,0.,-0.));
#15 = MANIFOLD_SOLID_BREP('',#16);
#16 = CLOSED_SHELL('',(#17,#57,#88,#119,#150,#181,#221,#252,#283,#323,
    #354,#385,#425,#456,#487,#527,#558,#589,#611,#633,#655,#677,#708,
    #739,#776,#813));
#17 = ADVANCED_FACE('',(#18),#52,.F.);
#18 = FACE_BOUND('',#19,.F.);
#19 = EDGE_LOOP('',(#20,#30,#38,#46));
#20 = ORIENTED_EDGE('',*,*,#21,.T.);
#21 = EDGE_CURVE('',#22,#24,#26,.T.);
#22 = VERTEX_POINT('',#23);
#23 = CARTESIAN_POINT('',(-19.3,-12.18771309859,2.));
#24 = VERTEX_POINT('',#25);
#25 = CARTESIAN_POINT('',(-19.3,-17.68771309859,2.));
#26 = LINE('',#27,#28);
#27 = CARTESIAN_POINT('',(-19.3,-12.18771309859,2.));
#28 = VECTOR('',#29,1.);
#29 = DIRECTION('',(0.,-1.,0.));
#30 = ORIENTED_EDGE('',*,*,#31,.T.);
#31 = EDGE_CURVE('',#24,#32,#34,.T.);
#32 = VERTEX_POINT('',#33);
#33 = CARTESIAN_POINT('',(-18.3,-17.68771309859,2.));
#34 = LINE('',#35,#36);
#35 = CARTESIAN_POINT('',(-19.3,-17.68771309859,2.));
#36 = VECTOR('',#37,1.);
#37 = DIRECTION('',(1.,0.,0.));
#38 = ORIENTED_EDGE('',*,*,#39,.T.);
#39 = EDGE_CURVE('',#32,#40,#42,.T.);
#40 = VERTEX_POINT('',#41);
#41 = CARTESIAN_POINT('',(-18.3,-12.18771309859,2.));
#42 = LINE('',#43,#44);
#43 = CARTESIAN_POINT('',(-18.3,-17.68771309859,2.));
#44 = VECTOR('',#45,1.);
#45 = DIRECTION('',(0.,1.,0.));
#46 = ORIENTED_EDGE('',*,*,#47,.T.);
#47 = EDGE_CURVE('',#40,#22,#48,.T.);
#48 = LINE('',#49,#50);
#49 = CARTESIAN_POINT('',(-18.3,-12.18771309859,2.));
#50 = VECTOR('',#51,1.);
#51 = DIRECTION('',(-1.,0.,0.));
#52 = PLANE('',#53);
#53 = AXIS2_PLACEMENT_3D('',#54,#55,#56);
#54 = CARTESIAN_POINT('',(-4.712316666627E-02,-14.93771309859,2.));
#55 = DIRECTION('',(0.,0.,1.));
#56 = DIRECTION('',(1.,0.,0.));
#57 = ADVANCED_FACE('',(#58),#83,.T.);
#58 = FACE_BOUND('',#59,.T.);
#59 = EDGE_LOOP('',(#60,#68,#69,#77));
#60 = ORIENTED_EDGE('',*,*,#61,.T.);
#61 = EDGE_CURVE('',#62,#32,#64,.T.);
#62 = VERTEX_POINT('',#63);
#63 = CARTESIAN_POINT('',(-18.3,-17.68771309859,4.));
#64 = LINE('',#65,#66);
#65 = CARTESIAN_POINT('',(-18.3,-17.68771309859,4.));
#66 = VECTOR('',#67,1.);
#67 = DIRECTION('',(-0.,-0.,-1.));
#68 = ORIENTED_EDGE('',*,*,#39,.T.);
#69 = ORIENTED_EDGE('',*,*,#70,.F.);
#70 = EDGE_CURVE('',#71,#40,#73,.T.);
#71 = VERTEX_POINT('',#72);
#72 = CARTESIAN_POINT('',(-18.3,-12.18771309859,4.));
#73 = LINE('',#74,#75);
#74 = CARTESIAN_POINT('',(-18.3,-12.18771309859,4.));
#75 = VECTOR('',#76,1.);
#76 = DIRECTION('',(-0.,-0.,-1.));
#77 = ORIENTED_EDGE('',*,*,#78,.F.);
#78 = EDGE_CURVE('',#62,#71,#79,.T.);
#79 = LINE('',#80,#81);
#80 = CARTESIAN_POINT('',(-18.3,-17.68771309859,4.));
#81 = VECTOR('',#82,1.);
#82 = DIRECTION('',(0.,1.,0.));
#83 = PLANE('',#84);
#84 = AXIS2_PLACEMENT_3D('',#85,#86,#87);
#85 = CARTESIAN_POINT('',(-18.3,-17.68771309859,4.));
#86 = DIRECTION('',(1.,0.,0.));
#87 = DIRECTION('',(0.,1.,0.));
#88 = ADVANCED_FACE('',(#89),#114,.F.);
#89 = FACE_BOUND('',#90,.F.);
#90 = EDGE_LOOP('',(#91,#99,#100,#108));
#91 = ORIENTED_EDGE('',*,*,#92,.T.);
#92 = EDGE_CURVE('',#93,#71,#95,.T.);
#93 = VERTEX_POINT('',#94);
#94 = CARTESIAN_POINT('',(-12.22034699999,-12.18771309859,4.));
#95 = LINE('',#96,#97);
#96 = CARTESIAN_POINT('',(19.3,-12.18771309859,4.));
#97 = VECTOR('',#98,1.);
#98 = DIRECTION('',(-1.,0.,0.));
#99 = ORIENTED_EDGE('',*,*,#78,.F.);
#100 = ORIENTED_EDGE('',*,*,#101,.T.);
#101 = EDGE_CURVE('',#62,#102,#104,.T.);
#102 = VERTEX_POINT('',#103);
#103 = CARTESIAN_POINT('',(-12.22034699999,-17.68771309859,4.));
#104 = LINE('',#105,#106);
#105 = CARTESIAN_POINT('',(-19.3,-17.68771309859,4.));
#106 = VECTOR('',#107,1.);
#107 = DIRECTION('',(1.,0.,0.));
#108 = ORIENTED_EDGE('',*,*,#109,.F.);
#109 = EDGE_CURVE('',#93,#102,#110,.T.);
#110 = LINE('',#111,#112);
#111 = CARTESIAN_POINT('',(-12.22034699999,-12.18771309859,4.));
#112 = VECTOR('',#113,1.);
#113 = DIRECTION('',(0.,-1.,0.));
#114 = PLANE('',#115);
#115 = AXIS2_PLACEMENT_3D('',#116,#117,#118);
#116 = CARTESIAN_POINT('',(0.,-14.93771309859,4.));
#117 = DIRECTION('',(0.,0.,1.));
#118 = DIRECTION('',(1.,0.,0.));
#119 = ADVANCED_FACE('',(#120),#145,.T.);
#120 = FACE_BOUND('',#121,.T.);
#121 = EDGE_LOOP('',(#122,#130,#138,#144));
#122 = ORIENTED_EDGE('',*,*,#123,.T.);
#123 = EDGE_CURVE('',#93,#124,#126,.T.);
#124 = VERTEX_POINT('',#125);
#125 = CARTESIAN_POINT('',(-12.22034699999,-12.18771309859,2.));
#126 = LINE('',#127,#128);
#127 = CARTESIAN_POINT('',(-12.22034699999,-12.18771309859,4.));
#128 = VECTOR('',#129,1.);
#129 = DIRECTION('',(-0.,-0.,-1.));
#130 = ORIENTED_EDGE('',*,*,#131,.T.);
#131 = EDGE_CURVE('',#124,#132,#134,.T.);
#132 = VERTEX_POINT('',#133);
#133 = CARTESIAN_POINT('',(-12.22034699999,-17.68771309859,2.));
#134 = LINE('',#135,#136);
#135 = CARTESIAN_POINT('',(-12.22034699999,-12.18771309859,2.));
#136 = VECTOR('',#137,1.);
#137 = DIRECTION('',(0.,-1.,0.));
#138 = ORIENTED_EDGE('',*,*,#139,.F.);
#139 = EDGE_CURVE('',#102,#132,#140,.T.);
#140 = LINE('',#141,#142);
#141 = CARTESIAN_POINT('',(-12.22034699999,-17.68771309859,4.));
#142 = VECTOR('',#143,1.);
#143 = DIRECTION('',(-0.,-0.,-1.));
#144 = ORIENTED_EDGE('',*,*,#109,.F.);
#145 = PLANE('',#146);
#146 = AXIS2_PLACEMENT_3D('',#147,#148,#149);
#147 = CARTESIAN_POINT('',(-12.22034699999,-12.18771309859,4.));
#148 = DIRECTION('',(-1.,0.,0.));
#149 = DIRECTION('',(0.,-1.,0.));
#150 = ADVANCED_FACE('',(#151),#176,.F.);
#151 = FACE_BOUND('',#152,.F.);
#152 = EDGE_LOOP('',(#153,#154,#162,#170));
#153 = ORIENTED_EDGE('',*,*,#131,.T.);
#154 = ORIENTED_EDGE('',*,*,#155,.T.);
#155 = EDGE_CURVE('',#132,#156,#158,.T.);
#156 = VERTEX_POINT('',#157);
#157 = CARTESIAN_POINT('',(-11.22034699999,-17.68771309859,2.));
#158 = LINE('',#159,#160);
#159 = CARTESIAN_POINT('',(-12.22034699999,-17.68771309859,2.));
#160 = VECTOR('',#161,1.);
#161 = DIRECTION('',(1.,0.,0.));
#162 = ORIENTED_EDGE('',*,*,#163,.T.);
#163 = EDGE_CURVE('',#156,#164,#166,.T.);
#164 = VERTEX_POINT('',#165);
#165 = CARTESIAN_POINT('',(-11.22034699999,-12.18771309859,2.));
#166 = LINE('',#167,#168);
#167 = CARTESIAN_POINT('',(-11.22034699999,-17.68771309859,2.));
#168 = VECTOR('',#169,1.);
#169 = DIRECTION('',(0.,1.,0.));
#170 = ORIENTED_EDGE('',*,*,#171,.T.);
#171 = EDGE_CURVE('',#164,#124,#172,.T.);
#172 = LINE('',#173,#174);
#173 = CARTESIAN_POINT('',(-11.22034699999,-12.18771309859,2.));
#174 = VECTOR('',#175,1.);
#175 = DIRECTION('',(-1.,0.,0.));
#176 = PLANE('',#177);
#177 = AXIS2_PLACEMENT_3D('',#178,#179,#180);
#178 = CARTESIAN_POINT('',(-4.712316666627E-02,-14.93771309859,2.));
#179 = DIRECTION('',(0.,0.,1.));
#180 = DIRECTION('',(1.,0.,0.));
#181 = ADVANCED_FACE('',(#182),#216,.F.);
#182 = FACE_BOUND('',#183,.F.);
#183 = EDGE_LOOP('',(#184,#194,#202,#210));
#184 = ORIENTED_EDGE('',*,*,#185,.T.);
#185 = EDGE_CURVE('',#186,#188,#190,.T.);
#186 = VERTEX_POINT('',#187);
#187 = CARTESIAN_POINT('',(-7.008677,-12.18771309859,4.));
#188 = VERTEX_POINT('',#189);
#189 = CARTESIAN_POINT('',(-11.22034699999,-12.18771309859,4.));
#190 = LINE('',#191,#192);
#191 = CARTESIAN_POINT('',(19.3,-12.18771309859,4.));
#192 = VECTOR('',#193,1.);
#193 = DIRECTION('',(-1.,0.,0.));
#194 = ORIENTED_EDGE('',*,*,#195,.F.);
#195 = EDGE_CURVE('',#196,#188,#198,.T.);
#196 = VERTEX_POINT('',#197);
#197 = CARTESIAN_POINT('',(-11.22034699999,-17.68771309859,4.));
#198 = LINE('',#199,#200);
#199 = CARTESIAN_POINT('',(-11.22034699999,-17.68771309859,4.));
#200 = VECTOR('',#201,1.);
#201 = DIRECTION('',(0.,1.,0.));
#202 = ORIENTED_EDGE('',*,*,#203,.T.);
#203 = EDGE_CURVE('',#196,#204,#206,.T.);
#204 = VERTEX_POINT('',#205);
#205 = CARTESIAN_POINT('',(-7.008677,-17.68771309859,4.));
#206 = LINE('',#207,#208);
#207 = CARTESIAN_POINT('',(-19.3,-17.68771309859,4.));
#208 = VECTOR('',#209,1.);
#209 = DIRECTION('',(1.,0.,0.));
#210 = ORIENTED_EDGE('',*,*,#211,.F.);
#211 = EDGE_CURVE('',#186,#204,#212,.T.);
#212 = LINE('',#213,#214);
#213 = CARTESIAN_POINT('',(-7.008677,-12.18771309859,4.));
#214 = VECTOR('',#215,1.);
#215 = DIRECTION('',(0.,-1.,0.));
#216 = PLANE('',#217);
#217 = AXIS2_PLACEMENT_3D('',#218,#219,#220);
#218 = CARTESIAN_POINT('',(0.,-14.93771309859,4.));
#219 = DIRECTION('',(0.,0.,1.));
#220 = DIRECTION('',(1.,0.,0.));
#221 = ADVANCED_FACE('',(#222),#247,.T.);
#222 = FACE_BOUND('',#223,.T.);
#223 = EDGE_LOOP('',(#224,#232,#240,#246));
#224 = ORIENTED_EDGE('',*,*,#225,.T.);
#225 = EDGE_CURVE('',#186,#226,#228,.T.);
#226 = VERTEX_POINT('',#227);
#227 = CARTESIAN_POINT('',(-7.008677,-12.18771309859,2.));
#228 = LINE('',#229,#230);
#229 = CARTESIAN_POINT('',(-7.008677,-12.18771309859,4.));
#230 = VECTOR('',#231,1.);
#231 = DIRECTION('',(-0.,-0.,-1.));
#232 = ORIENTED_EDGE('',*,*,#233,.T.);
#233 = EDGE_CURVE('',#226,#234,#236,.T.);
#234 = VERTEX_POINT('',#235);
#235 = CARTESIAN_POINT('',(-7.008677,-17.68771309859,2.));
#236 = LINE('',#237,#238);
#237 = CARTESIAN_POINT('',(-7.008677,-12.18771309859,2.));
#238 = VECTOR('',#239,1.);
#239 = DIRECTION('',(0.,-1.,0.));
#240 = ORIENTED_EDGE('',*,*,#241,.F.);
#241 = EDGE_CURVE('',#204,#234,#242,.T.);
#242 = LINE('',#243,#244);
#243 = CARTESIAN_POINT('',(-7.008677,-17.68771309859,4.));
#244 = VECTOR('',#245,1.);
#245 = DIRECTION('',(-0.,-0.,-1.));
#246 = ORIENTED_EDGE('',*,*,#211,.F.);
#247 = PLANE('',#248);
#248 = AXIS2_PLACEMENT_3D('',#249,#250,#251);
#249 = CARTESIAN_POINT('',(-7.008677,-12.18771309859,4.));
#250 = DIRECTION('',(-1.,0.,0.));
#251 = DIRECTION('',(0.,-1.,0.));
#252 = ADVANCED_FACE('',(#253),#278,.F.);
#253 = FACE_BOUND('',#254,.F.);
#254 = EDGE_LOOP('',(#255,#256,#264,#272));
#255 = ORIENTED_EDGE('',*,*,#233,.T.);
#256 = ORIENTED_EDGE('',*,*,#257,.T.);
#257 = EDGE_CURVE('',#234,#258,#260,.T.);
#258 = VERTEX_POINT('',#259);
#259 = CARTESIAN_POINT('',(-6.008677000001,-17.68771309859,2.));
#260 = LINE('',#261,#262);
#261 = CARTESIAN_POINT('',(-7.008677,-17.68771309859,2.));
#262 = VECTOR('',#263,1.);
#263 = DIRECTION('',(1.,0.,0.));
#264 = ORIENTED_EDGE('',*,*,#265,.T.);
#265 = EDGE_CURVE('',#258,#266,#268,.T.);
#266 = VERTEX_POINT('',#267);
#267 = CARTESIAN_POINT('',(-6.008677000001,-12.18771309859,2.));
#268 = LINE('',#269,#270);
#269 = CARTESIAN_POINT('',(-6.008677000001,-17.68771309859,2.));
#270 = VECTOR('',#271,1.);
#271 = DIRECTION('',(0.,1.,0.));
#272 = ORIENTED_EDGE('',*,*,#273,.T.);
#273 = EDGE_CURVE('',#266,#226,#274,.T.);
#274 = LINE('',#275,#276);
#275 = CARTESIAN_POINT('',(-6.008677000001,-12.18771309859,2.));
#276 = VECTOR('',#277,1.);
#277 = DIRECTION('',(-1.,0.,0.));
#278 = PLANE('',#279);
#279 = AXIS2_PLACEMENT_3D('',#280,#281,#282);
#280 = CARTESIAN_POINT('',(-4.712316666627E-02,-14.93771309859,2.));
#281 = DIRECTION('',(0.,0.,1.));
#282 = DIRECTION('',(1.,0.,0.));
#283 = ADVANCED_FACE('',(#284),#318,.F.);
#284 = FACE_BOUND('',#285,.F.);
#285 = EDGE_LOOP('',(#286,#296,#304,#312));
#286 = ORIENTED_EDGE('',*,*,#287,.T.);
#287 = EDGE_CURVE('',#288,#290,#292,.T.);
#288 = VERTEX_POINT('',#289);
#289 = CARTESIAN_POINT('',(5.688807406646,-12.18771309859,4.));
#290 = VERTEX_POINT('',#291);
#291 = CARTESIAN_POINT('',(-6.008677000001,-12.18771309859,4.));
#292 = LINE('',#293,#294);
#293 = CARTESIAN_POINT('',(19.3,-12.18771309859,4.));
#294 = VECTOR('',#295,1.);
#295 = DIRECTION('',(-1.,0.,0.));
#296 = ORIENTED_EDGE('',*,*,#297,.F.);
#297 = EDGE_CURVE('',#298,#290,#300,.T.);
#298 = VERTEX_POINT('',#299);
#299 = CARTESIAN_POINT('',(-6.008677000001,-17.68771309859,4.));
#300 = LINE('',#301,#302);
#301 = CARTESIAN_POINT('',(-6.008677000001,-17.68771309859,4.));
#302 = VECTOR('',#303,1.);
#303 = DIRECTION('',(0.,1.,0.));
#304 = ORIENTED_EDGE('',*,*,#305,.T.);
#305 = EDGE_CURVE('',#298,#306,#308,.T.);
#306 = VERTEX_POINT('',#307);
#307 = CARTESIAN_POINT('',(5.688807406646,-17.68771309859,4.));
#308 = LINE('',#309,#310);
#309 = CARTESIAN_POINT('',(-19.3,-17.68771309859,4.));
#310 = VECTOR('',#311,1.);
#311 = DIRECTION('',(1.,0.,0.));
#312 = ORIENTED_EDGE('',*,*,#313,.F.);
#313 = EDGE_CURVE('',#288,#306,#314,.T.);
#314 = LINE('',#315,#316);
#315 = CARTESIAN_POINT('',(5.688807406646,-12.18771309859,4.));
#316 = VECTOR('',#317,1.);
#317 = DIRECTION('',(0.,-1.,0.));
#318 = PLANE('',#319);
#319 = AXIS2_PLACEMENT_3D('',#320,#321,#322);
#320 = CARTESIAN_POINT('',(0.,-14.93771309859,4.));
#321 = DIRECTION('',(0.,0.,1.));
#322 = DIRECTION('',(1.,0.,0.));
#323 = ADVANCED_FACE('',(#324),#349,.T.);
#324 = FACE_BOUND('',#325,.T.);
#325 = EDGE_LOOP('',(#326,#334,#342,#348));
#326 = ORIENTED_EDGE('',*,*,#327,.T.);
#327 = EDGE_CURVE('',#288,#328,#330,.T.);
#328 = VERTEX_POINT('',#329);
#329 = CARTESIAN_POINT('',(5.688807406646,-12.18771309859,2.));
#330 = LINE('',#331,#332);
#331 = CARTESIAN_POINT('',(5.688807406646,-12.18771309859,4.));
#332 = VECTOR('',#333,1.);
#333 = DIRECTION('',(-0.,-0.,-1.));
#334 = ORIENTED_EDGE('',*,*,#335,.T.);
#335 = EDGE_CURVE('',#328,#336,#338,.T.);
#336 = VERTEX_POINT('',#337);
#337 = CARTESIAN_POINT('',(5.688807406646,-17.68771309859,2.));
#338 = LINE('',#339,#340);
#339 = CARTESIAN_POINT('',(5.688807406646,-12.18771309859,2.));
#340 = VECTOR('',#341,1.);
#341 = DIRECTION('',(0.,-1.,0.));
#342 = ORIENTED_EDGE('',*,*,#343,.F.);
#343 = EDGE_CURVE('',#306,#336,#344,.T.);
#344 = LINE('',#345,#346);
#345 = CARTESIAN_POINT('',(5.688807406646,-17.68771309859,4.));
#346 = VECTOR('',#347,1.);
#347 = DIRECTION('',(-0.,-0.,-1.));
#348 = ORIENTED_EDGE('',*,*,#313,.F.);
#349 = PLANE('',#350);
#350 = AXIS2_PLACEMENT_3D('',#351,#352,#353);
#351 = CARTESIAN_POINT('',(5.688807406646,-12.18771309859,4.));
#352 = DIRECTION('',(-1.,0.,0.));
#353 = DIRECTION('',(0.,-1.,0.));
#354 = ADVANCED_FACE('',(#355),#380,.F.);
#355 = FACE_BOUND('',#356,.F.);
#356 = EDGE_LOOP('',(#357,#358,#366,#374));
#357 = ORIENTED_EDGE('',*,*,#335,.T.);
#358 = ORIENTED_EDGE('',*,*,#359,.T.);
#359 = EDGE_CURVE('',#336,#360,#362,.T.);
#360 = VERTEX_POINT('',#361);
#361 = CARTESIAN_POINT('',(6.688807406646,-17.68771309859,2.));
#362 = LINE('',#363,#364);
#363 = CARTESIAN_POINT('',(5.688807406646,-17.68771309859,2.));
#364 = VECTOR('',#365,1.);
#365 = DIRECTION('',(1.,0.,0.));
#366 = ORIENTED_EDGE('',*,*,#367,.T.);
#367 = EDGE_CURVE('',#360,#368,#370,.T.);
#368 = VERTEX_POINT('',#369);
#369 = CARTESIAN_POINT('',(6.688807406646,-12.18771309859,2.));
#370 = LINE('',#371,#372);
#371 = CARTESIAN_POINT('',(6.688807406646,-17.68771309859,2.));
#372 = VECTOR('',#373,1.);
#373 = DIRECTION('',(0.,1.,0.));
#374 = ORIENTED_EDGE('',*,*,#375,.T.);
#375 = EDGE_CURVE('',#368,#328,#376,.T.);
#376 = LINE('',#377,#378);
#377 = CARTESIAN_POINT('',(6.688807406646,-12.18771309859,2.));
#378 = VECTOR('',#379,1.);
#379 = DIRECTION('',(-1.,0.,0.));
#380 = PLANE('',#381);
#381 = AXIS2_PLACEMENT_3D('',#382,#383,#384);
#382 = CARTESIAN_POINT('',(-4.712316666627E-02,-14.93771309859,2.));
#383 = DIRECTION('',(0.,0.,1.));
#384 = DIRECTION('',(1.,0.,0.));
#385 = ADVANCED_FACE('',(#386),#420,.F.);
#386 = FACE_BOUND('',#387,.F.);
#387 = EDGE_LOOP('',(#388,#398,#406,#414));
#388 = ORIENTED_EDGE('',*,*,#389,.T.);
#389 = EDGE_CURVE('',#390,#392,#394,.T.);
#390 = VERTEX_POINT('',#391);
#391 = CARTESIAN_POINT('',(11.257477593353,-12.18771309859,4.));
#392 = VERTEX_POINT('',#393);
#393 = CARTESIAN_POINT('',(6.688807406646,-12.18771309859,4.));
#394 = LINE('',#395,#396);
#395 = CARTESIAN_POINT('',(19.3,-12.18771309859,4.));
#396 = VECTOR('',#397,1.);
#397 = DIRECTION('',(-1.,0.,0.));
#398 = ORIENTED_EDGE('',*,*,#399,.F.);
#399 = EDGE_CURVE('',#400,#392,#402,.T.);
#400 = VERTEX_POINT('',#401);
#401 = CARTESIAN_POINT('',(6.688807406646,-17.68771309859,4.));
#402 = LINE('',#403,#404);
#403 = CARTESIAN_POINT('',(6.688807406646,-17.68771309859,4.));
#404 = VECTOR('',#405,1.);
#405 = DIRECTION('',(0.,1.,0.));
#406 = ORIENTED_EDGE('',*,*,#407,.T.);
#407 = EDGE_CURVE('',#400,#408,#410,.T.);
#408 = VERTEX_POINT('',#409);
#409 = CARTESIAN_POINT('',(11.257477593353,-17.68771309859,4.));
#410 = LINE('',#411,#412);
#411 = CARTESIAN_POINT('',(-19.3,-17.68771309859,4.));
#412 = VECTOR('',#413,1.);
#413 = DIRECTION('',(1.,0.,0.));
#414 = ORIENTED_EDGE('',*,*,#415,.F.);
#415 = EDGE_CURVE('',#390,#408,#416,.T.);
#416 = LINE('',#417,#418);
#417 = CARTESIAN_POINT('',(11.257477593353,-12.18771309859,4.));
#418 = VECTOR('',#419,1.);
#419 = DIRECTION('',(0.,-1.,0.));
#420 = PLANE('',#421);
#421 = AXIS2_PLACEMENT_3D('',#422,#423,#424);
#422 = CARTESIAN_POINT('',(0.,-14.93771309859,4.));
#423 = DIRECTION('',(0.,0.,1.));
#424 = DIRECTION('',(1.,0.,0.));
#425 = ADVANCED_FACE('',(#426),#451,.T.);
#426 = FACE_BOUND('',#427,.T.);
#427 = EDGE_LOOP('',(#428,#436,#444,#450));
#428 = ORIENTED_EDGE('',*,*,#429,.T.);
#429 = EDGE_CURVE('',#390,#430,#432,.T.);
#430 = VERTEX_POINT('',#431);
#431 = CARTESIAN_POINT('',(11.257477593353,-12.18771309859,2.));
#432 = LINE('',#433,#434);
#433 = CARTESIAN_POINT('',(11.257477593353,-12.18771309859,4.));
#434 = VECTOR('',#435,1.);
#435 = DIRECTION('',(-0.,-0.,-1.));
#436 = ORIENTED_EDGE('',*,*,#437,.T.);
#437 = EDGE_CURVE('',#430,#438,#440,.T.);
#438 = VERTEX_POINT('',#439);
#439 = CARTESIAN_POINT('',(11.257477593353,-17.68771309859,2.));
#440 = LINE('',#441,#442);
#441 = CARTESIAN_POINT('',(11.257477593353,-12.18771309859,2.));
#442 = VECTOR('',#443,1.);
#443 = DIRECTION('',(0.,-1.,0.));
#444 = ORIENTED_EDGE('',*,*,#445,.F.);
#445 = EDGE_CURVE('',#408,#438,#446,.T.);
#446 = LINE('',#447,#448);
#447 = CARTESIAN_POINT('',(11.257477593353,-17.68771309859,4.));
#448 = VECTOR('',#449,1.);
#449 = DIRECTION('',(-0.,-0.,-1.));
#450 = ORIENTED_EDGE('',*,*,#415,.F.);
#451 = PLANE('',#452);
#452 = AXIS2_PLACEMENT_3D('',#453,#454,#455);
#453 = CARTESIAN_POINT('',(11.257477593353,-12.18771309859,4.));
#454 = DIRECTION('',(-1.,0.,0.));
#455 = DIRECTION('',(0.,-1.,0.));
#456 = ADVANCED_FACE('',(#457),#482,.F.);
#457 = FACE_BOUND('',#458,.F.);
#458 = EDGE_LOOP('',(#459,#460,#468,#476));
#459 = ORIENTED_EDGE('',*,*,#437,.T.);
#460 = ORIENTED_EDGE('',*,*,#461,.T.);
#461 = EDGE_CURVE('',#438,#462,#464,.T.);
#462 = VERTEX_POINT('',#463);
#463 = CARTESIAN_POINT('',(12.257477593354,-17.68771309859,2.));
#464 = LINE('',#465,#466);
#465 = CARTESIAN_POINT('',(11.257477593353,-17.68771309859,2.));
#466 = VECTOR('',#467,1.);
#467 = DIRECTION('',(1.,0.,0.));
#468 = ORIENTED_EDGE('',*,*,#469,.T.);
#469 = EDGE_CURVE('',#462,#470,#472,.T.);
#470 = VERTEX_POINT('',#471);
#471 = CARTESIAN_POINT('',(12.257477593354,-12.18771309859,2.));
#472 = LINE('',#473,#474);
#473 = CARTESIAN_POINT('',(12.257477593354,-17.68771309859,2.));
#474 = VECTOR('',#475,1.);
#475 = DIRECTION('',(0.,1.,0.));
#476 = ORIENTED_EDGE('',*,*,#477,.T.);
#477 = EDGE_CURVE('',#470,#430,#478,.T.);
#478 = LINE('',#479,#480);
#479 = CARTESIAN_POINT('',(12.257477593354,-12.18771309859,2.));
#480 = VECTOR('',#481,1.);
#481 = DIRECTION('',(-1.,0.,0.));
#482 = PLANE('',#483);
#483 = AXIS2_PLACEMENT_3D('',#484,#485,#486);
#484 = CARTESIAN_POINT('',(-4.712316666627E-02,-14.93771309859,2.));
#485 = DIRECTION('',(0.,0.,1.));
#486 = DIRECTION('',(1.,0.,0.));
#487 = ADVANCED_FACE('',(#488),#522,.F.);
#488 = FACE_BOUND('',#489,.F.);
#489 = EDGE_LOOP('',(#490,#500,#508,#516));
#490 = ORIENTED_EDGE('',*,*,#491,.T.);
#491 = EDGE_CURVE('',#492,#494,#496,.T.);
#492 = VERTEX_POINT('',#493);
#493 = CARTESIAN_POINT('',(18.3,-12.18771309859,4.));
#494 = VERTEX_POINT('',#495);
#495 = CARTESIAN_POINT('',(12.257477593354,-12.18771309859,4.));
#496 = LINE('',#497,#498);
#497 = CARTESIAN_POINT('',(19.3,-12.18771309859,4.));
#498 = VECTOR('',#499,1.);
#499 = DIRECTION('',(-1.,0.,0.));
#500 = ORIENTED_EDGE('',*,*,#501,.F.);
#501 = EDGE_CURVE('',#502,#494,#504,.T.);
#502 = VERTEX_POINT('',#503);
#503 = CARTESIAN_POINT('',(12.257477593354,-17.68771309859,4.));
#504 = LINE('',#505,#506);
#505 = CARTESIAN_POINT('',(12.257477593354,-17.68771309859,4.));
#506 = VECTOR('',#507,1.);
#507 = DIRECTION('',(0.,1.,0.));
#508 = ORIENTED_EDGE('',*,*,#509,.T.);
#509 = EDGE_CURVE('',#502,#510,#512,.T.);
#510 = VERTEX_POINT('',#511);
#511 = CARTESIAN_POINT('',(18.3,-17.68771309859,4.));
#512 = LINE('',#513,#514);
#513 = CARTESIAN_POINT('',(-19.3,-17.68771309859,4.));
#514 = VECTOR('',#515,1.);
#515 = DIRECTION('',(1.,0.,0.));
#516 = ORIENTED_EDGE('',*,*,#517,.F.);
#517 = EDGE_CURVE('',#492,#510,#518,.T.);
#518 = LINE('',#519,#520);
#519 = CARTESIAN_POINT('',(18.3,-12.18771309859,4.));
#520 = VECTOR('',#521,1.);
#521 = DIRECTION('',(0.,-1.,0.));
#522 = PLANE('',#523);
#523 = AXIS2_PLACEMENT_3D('',#524,#525,#526);
#524 = CARTESIAN_POINT('',(0.,-14.93771309859,4.));
#525 = DIRECTION('',(0.,0.,1.));
#526 = DIRECTION('',(1.,0.,0.));
#527 = ADVANCED_FACE('',(#528),#553,.T.);
#528 = FACE_BOUND('',#529,.T.);
#529 = EDGE_LOOP('',(#530,#538,#546,#552));
#530 = ORIENTED_EDGE('',*,*,#531,.T.);
#531 = EDGE_CURVE('',#492,#532,#534,.T.);
#532 = VERTEX_POINT('',#533);
#533 = CARTESIAN_POINT('',(18.3,-12.18771309859,2.));
#534 = LINE('',#535,#536);
#535 = CARTESIAN_POINT('',(18.3,-12.18771309859,4.));
#536 = VECTOR('',#537,1.);
#537 = DIRECTION('',(-0.,-0.,-1.));
#538 = ORIENTED_EDGE('',*,*,#539,.T.);
#539 = EDGE_CURVE('',#532,#540,#542,.T.);
#540 = VERTEX_POINT('',#541);
#541 = CARTESIAN_POINT('',(18.3,-17.68771309859,2.));
#542 = LINE('',#543,#544);
#543 = CARTESIAN_POINT('',(18.3,-12.18771309859,2.));
#544 = VECTOR('',#545,1.);
#545 = DIRECTION('',(0.,-1.,0.));
#546 = ORIENTED_EDGE('',*,*,#547,.F.);
#547 = EDGE_CURVE('',#510,#540,#548,.T.);
#548 = LINE('',#549,#550);
#549 = CARTESIAN_POINT('',(18.3,-17.68771309859,4.));
#550 = VECTOR('',#551,1.);
#551 = DIRECTION('',(-0.,-0.,-1.));
#552 = ORIENTED_EDGE('',*,*,#517,.F.);
#553 = PLANE('',#554);
#554 = AXIS2_PLACEMENT_3D('',#555,#556,#557);
#555 = CARTESIAN_POINT('',(18.3,-12.18771309859,4.));
#556 = DIRECTION('',(-1.,0.,0.));
#557 = DIRECTION('',(0.,-1.,0.));
#558 = ADVANCED_FACE('',(#559),#584,.F.);
#559 = FACE_BOUND('',#560,.F.);
#560 = EDGE_LOOP('',(#561,#562,#570,#578));
#561 = ORIENTED_EDGE('',*,*,#539,.T.);
#562 = ORIENTED_EDGE('',*,*,#563,.T.);
#563 = EDGE_CURVE('',#540,#564,#566,.T.);
#564 = VERTEX_POINT('',#565);
#565 = CARTESIAN_POINT('',(19.3,-17.68771309859,2.));
#566 = LINE('',#567,#568);
#567 = CARTESIAN_POINT('',(18.3,-17.68771309859,2.));
#568 = VECTOR('',#569,1.);
#569 = DIRECTION('',(1.,0.,0.));
#570 = ORIENTED_EDGE('',*,*,#571,.T.);
#571 = EDGE_CURVE('',#564,#572,#574,.T.);
#572 = VERTEX_POINT('',#573);
#573 = CARTESIAN_POINT('',(19.3,-12.18771309859,2.));
#574 = LINE('',#575,#576);
#575 = CARTESIAN_POINT('',(19.3,-17.68771309859,2.));
#576 = VECTOR('',#577,1.);
#577 = DIRECTION('',(0.,1.,0.));
#578 = ORIENTED_EDGE('',*,*,#579,.T.);
#579 = EDGE_CURVE('',#572,#532,#580,.T.);
#580 = LINE('',#581,#582);
#581 = CARTESIAN_POINT('',(19.3,-12.18771309859,2.));
#582 = VECTOR('',#583,1.);
#583 = DIRECTION('',(-1.,0.,0.));
#584 = PLANE('',#585);
#585 = AXIS2_PLACEMENT_3D('',#586,#587,#588);
#586 = CARTESIAN_POINT('',(-4.712316666627E-02,-14.93771309859,2.));
#587 = DIRECTION('',(0.,0.,1.));
#588 = DIRECTION('',(1.,0.,0.));
#589 = ADVANCED_FACE('',(#590),#606,.T.);
#590 = FACE_BOUND('',#591,.T.);
#591 = EDGE_LOOP('',(#592,#598,#599,#605));
#592 = ORIENTED_EDGE('',*,*,#593,.T.);
#593 = EDGE_CURVE('',#502,#462,#594,.T.);
#594 = LINE('',#595,#596);
#595 = CARTESIAN_POINT('',(12.257477593354,-17.68771309859,4.));
#596 = VECTOR('',#597,1.);
#597 = DIRECTION('',(-0.,-0.,-1.));
#598 = ORIENTED_EDGE('',*,*,#469,.T.);
#599 = ORIENTED_EDGE('',*,*,#600,.F.);
#600 = EDGE_CURVE('',#494,#470,#601,.T.);
#601 = LINE('',#602,#603);
#602 = CARTESIAN_POINT('',(12.257477593354,-12.18771309859,4.));
#603 = VECTOR('',#604,1.);
#604 = DIRECTION('',(-0.,-0.,-1.));
#605 = ORIENTED_EDGE('',*,*,#501,.F.);
#606 = PLANE('',#607);
#607 = AXIS2_PLACEMENT_3D('',#608,#609,#610);
#608 = CARTESIAN_POINT('',(12.257477593354,-17.68771309859,4.));
#609 = DIRECTION('',(1.,0.,0.));
#610 = DIRECTION('',(0.,1.,0.));
#611 = ADVANCED_FACE('',(#612),#628,.T.);
#612 = FACE_BOUND('',#613,.T.);
#613 = EDGE_LOOP('',(#614,#620,#621,#627));
#614 = ORIENTED_EDGE('',*,*,#615,.T.);
#615 = EDGE_CURVE('',#400,#360,#616,.T.);
#616 = LINE('',#617,#618);
#617 = CARTESIAN_POINT('',(6.688807406646,-17.68771309859,4.));
#618 = VECTOR('',#619,1.);
#619 = DIRECTION('',(-0.,-0.,-1.));
#620 = ORIENTED_EDGE('',*,*,#367,.T.);
#621 = ORIENTED_EDGE('',*,*,#622,.F.);
#622 = EDGE_CURVE('',#392,#368,#623,.T.);
#623 = LINE('',#624,#625);
#624 = CARTESIAN_POINT('',(6.688807406646,-12.18771309859,4.));
#625 = VECTOR('',#626,1.);
#626 = DIRECTION('',(-0.,-0.,-1.));
#627 = ORIENTED_EDGE('',*,*,#399,.F.);
#628 = PLANE('',#629);
#629 = AXIS2_PLACEMENT_3D('',#630,#631,#632);
#630 = CARTESIAN_POINT('',(6.688807406646,-17.68771309859,4.));
#631 = DIRECTION('',(1.,0.,0.));
#632 = DIRECTION('',(0.,1.,0.));
#633 = ADVANCED_FACE('',(#634),#650,.T.);
#634 = FACE_BOUND('',#635,.T.);
#635 = EDGE_LOOP('',(#636,#642,#643,#649));
#636 = ORIENTED_EDGE('',*,*,#637,.T.);
#637 = EDGE_CURVE('',#298,#258,#638,.T.);
#638 = LINE('',#639,#640);
#639 = CARTESIAN_POINT('',(-6.008677000001,-17.68771309859,4.));
#640 = VECTOR('',#641,1.);
#641 = DIRECTION('',(-0.,-0.,-1.));
#642 = ORIENTED_EDGE('',*,*,#265,.T.);
#643 = ORIENTED_EDGE('',*,*,#644,.F.);
#644 = EDGE_CURVE('',#290,#266,#645,.T.);
#645 = LINE('',#646,#647);
#646 = CARTESIAN_POINT('',(-6.008677000001,-12.18771309859,4.));
#647 = VECTOR('',#648,1.);
#648 = DIRECTION('',(-0.,-0.,-1.));
#649 = ORIENTED_EDGE('',*,*,#297,.F.);
#650 = PLANE('',#651);
#651 = AXIS2_PLACEMENT_3D('',#652,#653,#654);
#652 = CARTESIAN_POINT('',(-6.008677000001,-17.68771309859,4.));
#653 = DIRECTION('',(1.,0.,0.));
#654 = DIRECTION('',(0.,1.,0.));
#655 = ADVANCED_FACE('',(#656),#672,.T.);
#656 = FACE_BOUND('',#657,.T.);
#657 = EDGE_LOOP('',(#658,#664,#665,#671));
#658 = ORIENTED_EDGE('',*,*,#659,.T.);
#659 = EDGE_CURVE('',#196,#156,#660,.T.);
#660 = LINE('',#661,#662);
#661 = CARTESIAN_POINT('',(-11.22034699999,-17.68771309859,4.));
#662 = VECTOR('',#663,1.);
#663 = DIRECTION('',(-0.,-0.,-1.));
#664 = ORIENTED_EDGE('',*,*,#163,.T.);
#665 = ORIENTED_EDGE('',*,*,#666,.F.);
#666 = EDGE_CURVE('',#188,#164,#667,.T.);
#667 = LINE('',#668,#669);
#668 = CARTESIAN_POINT('',(-11.22034699999,-12.18771309859,4.));
#669 = VECTOR('',#670,1.);
#670 = DIRECTION('',(-0.,-0.,-1.));
#671 = ORIENTED_EDGE('',*,*,#195,.F.);
#672 = PLANE('',#673);
#673 = AXIS2_PLACEMENT_3D('',#674,#675,#676);
#674 = CARTESIAN_POINT('',(-11.22034699999,-17.68771309859,4.));
#675 = DIRECTION('',(1.,0.,0.));
#676 = DIRECTION('',(0.,1.,0.));
#677 = ADVANCED_FACE('',(#678),#703,.T.);
#678 = FACE_BOUND('',#679,.T.);
#679 = EDGE_LOOP('',(#680,#681,#689,#697));
#680 = ORIENTED_EDGE('',*,*,#21,.T.);
#681 = ORIENTED_EDGE('',*,*,#682,.F.);
#682 = EDGE_CURVE('',#683,#24,#685,.T.);
#683 = VERTEX_POINT('',#684);
#684 = CARTESIAN_POINT('',(-19.3,-17.68771309859,5.));
#685 = LINE('',#686,#687);
#686 = CARTESIAN_POINT('',(-19.3,-17.68771309859,4.));
#687 = VECTOR('',#688,1.);
#688 = DIRECTION('',(-0.,-0.,-1.));
#689 = ORIENTED_EDGE('',*,*,#690,.F.);
#690 = EDGE_CURVE('',#691,#683,#693,.T.);
#691 = VERTEX_POINT('',#692);
#692 = CARTESIAN_POINT('',(-19.3,-12.18771309859,5.));
#693 = LINE('',#694,#695);
#694 = CARTESIAN_POINT('',(-19.3,-12.18771309859,5.));
#695 = VECTOR('',#696,1.);
#696 = DIRECTION('',(0.,-1.,0.));
#697 = ORIENTED_EDGE('',*,*,#698,.F.);
#698 = EDGE_CURVE('',#22,#691,#699,.T.);
#699 = LINE('',#700,#701);
#700 = CARTESIAN_POINT('',(-19.3,-12.18771309859,4.));
#701 = VECTOR('',#702,1.);
#702 = DIRECTION('',(0.,0.,1.));
#703 = PLANE('',#704);
#704 = AXIS2_PLACEMENT_3D('',#705,#706,#707);
#705 = CARTESIAN_POINT('',(-19.3,-14.93771309859,3.5));
#706 = DIRECTION('',(-1.,-0.,-0.));
#707 = DIRECTION('',(0.,0.,-1.));
#708 = ADVANCED_FACE('',(#709),#734,.T.);
#709 = FACE_BOUND('',#710,.T.);
#710 = EDGE_LOOP('',(#711,#712,#720,#728));
#711 = ORIENTED_EDGE('',*,*,#690,.T.);
#712 = ORIENTED_EDGE('',*,*,#713,.T.);
#713 = EDGE_CURVE('',#683,#714,#716,.T.);
#714 = VERTEX_POINT('',#715);
#715 = CARTESIAN_POINT('',(19.3,-17.68771309859,5.));
#716 = LINE('',#717,#718);
#717 = CARTESIAN_POINT('',(-19.3,-17.68771309859,5.));
#718 = VECTOR('',#719,1.);
#719 = DIRECTION('',(1.,0.,0.));
#720 = ORIENTED_EDGE('',*,*,#721,.T.);
#721 = EDGE_CURVE('',#714,#722,#724,.T.);
#722 = VERTEX_POINT('',#723);
#723 = CARTESIAN_POINT('',(19.3,-12.18771309859,5.));
#724 = LINE('',#725,#726);
#725 = CARTESIAN_POINT('',(19.3,-17.68771309859,5.));
#726 = VECTOR('',#727,1.);
#727 = DIRECTION('',(0.,1.,0.));
#728 = ORIENTED_EDGE('',*,*,#729,.T.);
#729 = EDGE_CURVE('',#722,#691,#730,.T.);
#730 = LINE('',#731,#732);
#731 = CARTESIAN_POINT('',(19.3,-12.18771309859,5.));
#732 = VECTOR('',#733,1.);
#733 = DIRECTION('',(-1.,0.,0.));
#734 = PLANE('',#735);
#735 = AXIS2_PLACEMENT_3D('',#736,#737,#738);
#736 = CARTESIAN_POINT('',(0.,-14.93771309859,5.));
#737 = DIRECTION('',(0.,0.,1.));
#738 = DIRECTION('',(1.,0.,0.));
#739 = ADVANCED_FACE('',(#740),#771,.T.);
#740 = FACE_BOUND('',#741,.T.);
#741 = EDGE_LOOP('',(#742,#743,#744,#745,#746,#752,#753,#754,#755,#756,
    #757,#758,#759,#760,#761,#762,#763,#764,#765,#766,#767,#768,#769,
    #770));
#742 = ORIENTED_EDGE('',*,*,#70,.T.);
#743 = ORIENTED_EDGE('',*,*,#47,.T.);
#744 = ORIENTED_EDGE('',*,*,#698,.T.);
#745 = ORIENTED_EDGE('',*,*,#729,.F.);
#746 = ORIENTED_EDGE('',*,*,#747,.F.);
#747 = EDGE_CURVE('',#572,#722,#748,.T.);
#748 = LINE('',#749,#750);
#749 = CARTESIAN_POINT('',(19.3,-12.18771309859,4.));
#750 = VECTOR('',#751,1.);
#751 = DIRECTION('',(0.,0.,1.));
#752 = ORIENTED_EDGE('',*,*,#579,.T.);
#753 = ORIENTED_EDGE('',*,*,#531,.F.);
#754 = ORIENTED_EDGE('',*,*,#491,.T.);
#755 = ORIENTED_EDGE('',*,*,#600,.T.);
#756 = ORIENTED_EDGE('',*,*,#477,.T.);
#757 = ORIENTED_EDGE('',*,*,#429,.F.);
#758 = ORIENTED_EDGE('',*,*,#389,.T.);
#759 = ORIENTED_EDGE('',*,*,#622,.T.);
#760 = ORIENTED_EDGE('',*,*,#375,.T.);
#761 = ORIENTED_EDGE('',*,*,#327,.F.);
#762 = ORIENTED_EDGE('',*,*,#287,.T.);
#763 = ORIENTED_EDGE('',*,*,#644,.T.);
#764 = ORIENTED_EDGE('',*,*,#273,.T.);
#765 = ORIENTED_EDGE('',*,*,#225,.F.);
#766 = ORIENTED_EDGE('',*,*,#185,.T.);
#767 = ORIENTED_EDGE('',*,*,#666,.T.);
#768 = ORIENTED_EDGE('',*,*,#171,.T.);
#769 = ORIENTED_EDGE('',*,*,#123,.F.);
#770 = ORIENTED_EDGE('',*,*,#92,.T.);
#771 = PLANE('',#772);
#772 = AXIS2_PLACEMENT_3D('',#773,#774,#775);
#773 = CARTESIAN_POINT('',(-1.095887596902E-02,-12.18771309859,
    4.03488372093));
#774 = DIRECTION('',(0.,1.,3.935591830759E-16));
#775 = DIRECTION('',(0.,-3.935591830759E-16,1.));
#776 = ADVANCED_FACE('',(#777),#808,.T.);
#777 = FACE_BOUND('',#778,.T.);
#778 = EDGE_LOOP('',(#779,#780,#781,#782,#783,#784,#785,#786,#787,#788,
    #789,#790,#791,#792,#793,#794,#795,#796,#797,#798,#799,#800,#801,
    #807));
#779 = ORIENTED_EDGE('',*,*,#682,.T.);
#780 = ORIENTED_EDGE('',*,*,#31,.T.);
#781 = ORIENTED_EDGE('',*,*,#61,.F.);
#782 = ORIENTED_EDGE('',*,*,#101,.T.);
#783 = ORIENTED_EDGE('',*,*,#139,.T.);
#784 = ORIENTED_EDGE('',*,*,#155,.T.);
#785 = ORIENTED_EDGE('',*,*,#659,.F.);
#786 = ORIENTED_EDGE('',*,*,#203,.T.);
#787 = ORIENTED_EDGE('',*,*,#241,.T.);
#788 = ORIENTED_EDGE('',*,*,#257,.T.);
#789 = ORIENTED_EDGE('',*,*,#637,.F.);
#790 = ORIENTED_EDGE('',*,*,#305,.T.);
#791 = ORIENTED_EDGE('',*,*,#343,.T.);
#792 = ORIENTED_EDGE('',*,*,#359,.T.);
#793 = ORIENTED_EDGE('',*,*,#615,.F.);
#794 = ORIENTED_EDGE('',*,*,#407,.T.);
#795 = ORIENTED_EDGE('',*,*,#445,.T.);
#796 = ORIENTED_EDGE('',*,*,#461,.T.);
#797 = ORIENTED_EDGE('',*,*,#593,.F.);
#798 = ORIENTED_EDGE('',*,*,#509,.T.);
#799 = ORIENTED_EDGE('',*,*,#547,.T.);
#800 = ORIENTED_EDGE('',*,*,#563,.T.);
#801 = ORIENTED_EDGE('',*,*,#802,.F.);
#802 = EDGE_CURVE('',#714,#564,#803,.T.);
#803 = LINE('',#804,#805);
#804 = CARTESIAN_POINT('',(19.3,-17.68771309859,4.));
#805 = VECTOR('',#806,1.);
#806 = DIRECTION('',(-0.,-0.,-1.));
#807 = ORIENTED_EDGE('',*,*,#713,.F.);
#808 = PLANE('',#809);
#809 = AXIS2_PLACEMENT_3D('',#810,#811,#812);
#810 = CARTESIAN_POINT('',(-1.095887596902E-02,-17.68771309859,
    4.03488372093));
#811 = DIRECTION('',(-0.,-1.,-0.));
#812 = DIRECTION('',(0.,0.,-1.));
#813 = ADVANCED_FACE('',(#814),#820,.T.);
#814 = FACE_BOUND('',#815,.T.);
#815 = EDGE_LOOP('',(#816,#817,#818,#819));
#816 = ORIENTED_EDGE('',*,*,#802,.T.);
#817 = ORIENTED_EDGE('',*,*,#571,.T.);
#818 = ORIENTED_EDGE('',*,*,#747,.T.);
#819 = ORIENTED_EDGE('',*,*,#721,.F.);
#820 = PLANE('',#821);
#821 = AXIS2_PLACEMENT_3D('',#822,#823,#824);
#822 = CARTESIAN_POINT('',(19.3,-14.93771309859,3.5));
#823 = DIRECTION('',(1.,0.,-3.387471182112E-15));
#824 = DIRECTION('',(3.387471182112E-15,0.,1.));
#825 = ( GEOMETRIC_REPRESENTATION_CONTEXT(3) 
GLOBAL_UNCERTAINTY_ASSIGNED_CONTEXT((#829)) GLOBAL_UNIT_ASSIGNED_CONTEXT
((#826,#827,#828)) REPRESENTATION_CONTEXT('Context #1',
  '3D Context with UNIT and UNCERTAINTY') );
#826 = ( LENGTH_UNIT() NAMED_UNIT(*) SI_UNIT(.MILLI.,.METRE.) );
#827 = ( NAMED_UNIT(*) PLANE_ANGLE_UNIT() SI_UNIT($,.RADIAN.) );
#828 = ( NAMED_UNIT(*) SI_UNIT($,.STERADIAN.) SOLID_ANGLE_UNIT() );
#829 = UNCERTAINTY_MEASURE_WITH_UNIT(LENGTH_MEASURE(1.E-07),#826,
  'distance_accuracy_value','confusion accuracy');
#830 = PRODUCT_RELATED_PRODUCT_CATEGORY('part',$,(#7));
#831 = MECHANICAL_DESIGN_GEOMETRIC_PRESENTATION_REPRESENTATION('',(#832)
  ,#825);
#832 = STYLED_ITEM('color',(#833),#15);
#833 = PRESENTATION_STYLE_ASSIGNMENT((#834,#840));
#834 = SURFACE_STYLE_USAGE(.BOTH.,#835);
#835 = SURFACE_SIDE_STYLE('',(#836));
#836 = SURFACE_STYLE_FILL_AREA(#837);
#837 = FILL_AREA_STYLE('',(#838));
#838 = FILL_AREA_STYLE_COLOUR('',#839);
#839 = COLOUR_RGB('',0.447058818107,0.474509808674,0.501960817233);
#840 = CURVE_STYLE('',#841,POSITIVE_LENGTH_MEASURE(0.1),#842);
#841 = DRAUGHTING_PRE_DEFINED_CURVE_FONT('continuous');
#842 = COLOUR_RGB('',9.803921802644E-02,9.803921802644E-02,
  9.803921802644E-02);
ENDSEC;
END-ISO-10303-21;
